<svg version="1.1" id="Layer_1" xmlns="http://www.w3.org/2000/svg" xmlns:xlink="http://www.w3.org/1999/xlink" x="0px" y="0px"
	 width="100%" viewBox="0 0 958 282" enable-background="new 0 0 958 282" xml:space="preserve">
<path fill="#FEFEFE" opacity="1.000000" stroke="none" 
	d="
M686.000000,283.000000 
	C457.333344,283.000000 229.166672,283.000000 1.000000,283.000000 
	C1.000000,189.000000 1.000000,95.000000 1.000000,1.000000 
	C320.333344,1.000000 639.666687,1.000000 959.000000,1.000000 
	C959.000000,95.000000 959.000000,189.000000 959.000000,283.000000 
	C868.166687,283.000000 777.333313,283.000000 686.000000,283.000000 
M497.876465,170.031677 
	C499.257324,170.018677 500.638184,170.005692 502.369904,170.534851 
	C502.825531,171.507065 503.281158,172.479294 503.433533,174.162399 
	C505.215332,177.475357 506.997131,180.788315 509.111847,184.699844 
	C509.861267,186.356339 510.610687,188.012817 511.171387,190.335800 
	C511.560089,190.816116 511.948761,191.296432 512.702759,192.260635 
	C513.025269,193.001099 513.347778,193.741562 513.360596,195.164551 
	C514.204529,196.461014 515.048462,197.757477 516.203857,199.465912 
	C516.439331,199.716766 516.674744,199.967606 517.172302,200.950104 
	C524.852905,201.144699 532.533325,201.352264 540.215027,201.485458 
	C540.515442,201.490692 540.828186,200.784836 541.689819,200.015594 
	C541.585571,199.177399 541.481262,198.339203 541.661743,196.855148 
	C541.139832,196.220062 540.617920,195.584961 539.802673,194.495773 
	C539.661316,194.164841 539.519897,193.833908 539.667664,192.859726 
	C539.155640,192.217484 538.643677,191.575241 537.910400,190.602158 
	C537.910400,190.602158 537.801758,190.219208 537.944519,189.459427 
	C536.656982,187.292587 535.369507,185.125732 533.699585,182.396835 
	C532.921265,180.766846 532.142883,179.136856 531.659119,176.866119 
	C531.148926,176.223495 530.638794,175.580872 529.842712,174.480682 
	C529.703491,174.149506 529.564270,173.818329 529.700928,172.754211 
	C527.864014,169.472992 526.027100,166.191772 523.897095,162.456589 
	C523.751709,162.127472 523.606262,161.798340 523.727234,160.830566 
	C523.230774,160.184509 522.734314,159.538467 521.875793,158.335190 
	C521.212585,156.935318 520.549438,155.535431 519.996643,153.270569 
	C520.012573,151.536667 520.028503,149.802765 520.430847,147.542114 
	C522.180908,145.935974 523.930908,144.329819 526.393738,142.818146 
	C530.557739,138.492950 534.721680,134.167770 539.252625,129.310349 
	C541.115601,127.501350 542.978577,125.692345 545.548401,123.909492 
	C547.305481,121.870148 549.062622,119.830803 550.907715,116.954872 
	C549.607056,116.575958 548.309082,115.881104 547.005310,115.870079 
	C539.304504,115.804916 531.602478,115.898697 523.187317,115.889252 
	C521.720154,116.906822 520.070557,117.738838 518.815857,118.972527 
	C511.467285,126.198456 504.189819,133.497284 496.939392,140.822052 
	C495.254913,142.523804 493.753296,144.025360 491.994080,140.273941 
	C492.122894,139.563858 492.251740,138.853790 492.977264,137.923004 
	C492.994080,136.614548 493.010925,135.306091 493.049469,133.224564 
	C493.226227,132.211426 493.402985,131.198273 494.101044,129.937180 
	C494.067200,128.958649 494.033356,127.980125 493.997620,126.359283 
	C494.082520,125.940582 494.167389,125.521873 494.894989,124.897629 
	C494.943848,123.266212 494.992706,121.634789 495.041473,119.281654 
	C495.161987,118.571869 495.282532,117.862091 495.993347,116.918068 
	C495.983765,115.611076 495.974213,114.304085 495.977509,112.272896 
	C496.105255,111.561508 496.232971,110.850121 496.986450,109.904366 
	C497.015991,108.271164 497.045532,106.637962 497.081848,104.285057 
	C497.209229,103.578445 497.336609,102.871841 498.037994,101.916214 
	C498.051483,100.614105 498.064972,99.312004 498.073914,97.373138 
	C498.161224,96.958771 498.248505,96.544403 498.966949,95.898590 
	C498.976776,94.264053 498.986633,92.629509 498.997742,90.220703 
	C499.158356,89.203506 499.318970,88.186310 500.050140,86.912735 
	C500.055511,85.611320 500.060883,84.309898 500.037292,82.243935 
	C500.092590,81.480896 500.147888,80.717850 500.631226,79.605614 
	C499.748138,79.379364 498.865082,79.153114 497.049774,78.996986 
	C490.695374,78.975174 484.340973,78.953362 477.578278,78.484352 
	C477.024200,80.654984 476.470093,82.825607 475.920044,85.715637 
	C475.794495,86.421875 475.668945,87.128113 474.968414,88.087181 
	C474.982330,89.392273 474.996246,90.697365 475.010681,92.727272 
	C474.888489,93.439743 474.766296,94.152222 474.021820,95.100433 
	C473.986023,96.732292 473.950195,98.364143 473.917389,100.715889 
	C473.795959,101.423485 473.674530,102.131088 472.977142,103.086014 
	C472.974548,104.390434 472.971954,105.694862 472.967957,107.636002 
	C472.880157,108.050255 472.792358,108.464500 472.069122,109.096893 
	C472.020782,110.730164 471.972443,112.363434 471.923279,114.628532 
	C471.835754,115.039467 471.748230,115.450401 470.992645,116.150970 
	C470.633911,120.099030 470.275208,124.047089 469.923676,128.628342 
	C469.840790,129.041122 469.757874,129.453888 469.048401,130.098282 
	C469.013489,131.729965 468.978577,133.361649 468.941925,135.630142 
	C468.853271,136.044113 468.764618,136.458099 468.066437,137.073593 
	C468.051666,138.384705 468.036896,139.695816 468.001587,141.819870 
	C467.769745,143.148285 467.537903,144.476715 466.860809,146.021072 
	C466.907349,146.680710 466.953918,147.340363 466.990448,148.638840 
	C466.896393,149.053207 466.802338,149.467575 466.072906,150.099075 
	C466.028931,151.731781 465.984985,153.364471 465.930695,155.716934 
	C465.796112,156.422058 465.661530,157.127167 464.953278,158.086548 
	C464.971375,159.392029 464.989502,160.697525 465.004791,162.643219 
	C464.921936,163.061020 464.839081,163.478821 464.094574,164.120789 
	C464.043884,166.080399 463.993225,168.040009 463.946136,170.719376 
	C463.824463,171.426804 463.702820,172.134216 462.992889,173.079895 
	C463.008545,174.389053 463.024170,175.698196 463.038635,177.649353 
	C462.955078,178.068115 462.871490,178.486893 462.119171,179.116837 
	C462.050659,181.076538 461.982117,183.036255 461.907593,185.714951 
	C461.773621,186.419327 461.639679,187.123703 460.884155,188.163025 
	C460.601349,191.775894 460.318542,195.388763 460.182373,199.508575 
	C460.415924,199.769669 460.649475,200.030746 461.172516,201.009109 
	C468.216644,201.164917 475.260559,201.333878 482.305542,201.424606 
	C482.566315,201.427979 482.836914,200.667358 483.552612,199.687515 
	C483.795563,198.496262 484.038544,197.304993 484.921051,195.898361 
	C484.951447,194.264786 484.981842,192.631210 485.017517,190.276520 
	C485.145050,189.568390 485.272552,188.860275 486.044556,187.855774 
	C486.747314,182.685303 488.873657,178.325897 493.088562,175.058441 
	C493.612457,174.652283 493.647675,173.615753 494.269135,172.381790 
	C495.194641,171.598495 496.120178,170.815201 497.876465,170.031677 
M613.000000,54.001007 
	C613.000000,54.001007 612.945618,54.052925 612.836975,53.250099 
	C611.341675,52.840775 609.790527,51.941944 608.360474,52.104954 
	C601.325256,52.906902 594.275391,53.736816 587.316589,55.022305 
	C565.963379,58.966881 550.746704,73.783142 546.313538,94.627853 
	C545.063232,100.506912 546.075378,102.073227 551.602661,102.812325 
	C549.895081,110.020630 549.895142,110.030502 557.430542,109.978966 
	C559.591248,109.964188 561.809509,110.176231 563.902954,109.773186 
	C593.045288,104.162659 607.736450,85.126457 614.700012,58.792843 
	C615.052185,57.461033 613.573181,55.645008 613.000000,54.001007 
M805.622070,162.403366 
	C805.626221,162.939529 805.630371,163.475708 805.325684,164.800171 
	C805.236633,166.207550 805.147583,167.614929 804.643188,169.407990 
	C804.647644,169.942383 804.652100,170.476776 804.328857,171.791000 
	C804.226868,173.196899 804.124878,174.602798 803.614441,176.401154 
	C803.612244,176.938370 803.610046,177.475571 803.302063,178.801376 
	C803.216675,180.207321 803.131226,181.613251 802.586731,183.616592 
	C802.761719,186.061646 802.936707,188.506714 803.105591,191.680679 
	C806.068604,200.330551 811.424072,203.267624 821.970032,202.026398 
	C828.868225,201.214539 830.056763,199.358566 828.064026,192.510223 
	C813.519348,194.838074 810.828125,192.108643 812.867615,176.901749 
	C814.135559,167.447632 815.474121,158.001984 816.889893,148.568878 
	C818.637817,136.922607 818.686768,136.929932 830.736938,136.866409 
	C837.210022,136.832291 837.514160,136.443222 836.358765,128.876007 
	C831.101562,128.876007 825.715332,128.876007 819.803162,128.876007 
	C820.572571,121.441872 821.268433,114.718094 821.919434,107.405685 
	C821.603821,107.205994 821.288147,107.006294 820.226135,106.625381 
	C818.315247,106.512703 816.404358,106.400017 814.076233,106.262733 
	C813.715698,109.524673 813.410828,112.282585 812.671265,115.408432 
	C812.672119,115.942627 812.672974,116.476830 812.340332,117.791275 
	C812.244873,119.201317 812.149475,120.611351 811.598083,122.483688 
	C811.576294,123.326164 811.554504,124.168633 811.260620,125.813667 
	C810.145996,126.870750 809.182251,128.521652 807.882935,128.851608 
	C805.706238,129.404388 803.315552,129.114975 800.388123,129.258621 
	C800.134644,130.174652 799.881165,131.090683 799.315552,132.819794 
	C798.601807,135.438980 799.681824,136.439255 802.291321,136.305161 
	C804.472900,136.193054 806.664856,136.282166 809.055847,136.282166 
	C809.055847,138.789993 809.055847,140.405655 808.633057,142.401855 
	C808.635620,142.938507 808.638245,143.475159 808.321777,144.794617 
	C808.222046,146.199295 808.122314,147.603958 807.606873,149.397079 
	C807.613464,149.935410 807.620056,150.473740 807.320862,151.773727 
	C807.247803,152.861954 807.174744,153.950180 806.678528,155.415817 
	C806.688477,155.946915 806.698425,156.477997 806.358521,157.782501 
	C806.250000,159.192505 806.141479,160.602509 805.622070,162.403366 
M610.698730,165.422012 
	C610.718750,165.951309 610.738708,166.480621 610.407654,167.817871 
	C609.962524,171.554230 609.517456,175.290573 608.657227,179.415924 
	C608.681885,179.947693 608.706543,180.479446 608.388306,181.792511 
	C608.299255,183.210678 608.210205,184.628860 607.648499,186.496811 
	C607.651917,187.334549 607.655334,188.172272 607.341919,189.796616 
	C607.250244,191.206207 607.158630,192.615799 606.637573,194.405029 
	C606.662598,194.940704 606.687622,195.476364 606.391296,196.793091 
	C605.806763,199.048492 606.417175,200.371811 609.009399,200.230667 
	C610.668213,200.140350 612.330750,200.117798 614.554199,199.958344 
	C614.724915,199.635529 614.895630,199.312698 615.362549,198.247345 
	C615.881226,194.154968 616.399963,190.062576 617.299622,185.672974 
	C617.235168,185.101929 617.170654,184.530899 617.129883,183.119308 
	C617.748596,179.762924 618.416382,176.414688 618.975220,173.048355 
	C619.982056,166.983337 620.403809,160.765442 622.014832,154.869598 
	C624.407654,146.112396 629.520325,139.229126 638.737305,136.562241 
	C650.197449,133.246323 659.301086,140.119614 659.267456,151.988617 
	C659.257629,155.467255 658.930725,158.965149 658.478577,162.418793 
	C656.844177,174.902924 655.094604,187.371948 653.398193,199.775513 
	C660.924500,202.023285 663.013855,201.343231 663.667236,196.498810 
	C665.666870,181.673737 667.738037,166.856033 669.505066,152.002594 
	C670.955627,139.808624 662.360840,128.539902 650.681824,127.217331 
	C639.605042,125.962967 630.313477,129.370346 623.648743,138.685150 
	C623.005127,139.584686 622.693359,140.721634 621.801208,142.688141 
	C616.804077,132.216553 610.335388,127.458862 600.632507,126.957764 
	C591.171204,126.469162 584.125183,131.206665 576.670410,137.984055 
	C576.670410,134.078857 576.670410,131.679214 576.670410,129.369659 
	C573.622803,129.369659 571.067444,129.369659 568.431641,129.369659 
	C565.141174,153.226990 561.908203,176.667130 558.680054,200.072495 
	C568.001526,201.647873 568.014709,201.513672 569.020935,193.728348 
	C570.576172,181.695328 572.231934,169.671753 574.104065,157.684616 
	C575.193909,150.706345 578.531982,144.732330 584.128479,140.347275 
	C590.226562,135.569244 597.178589,134.174652 604.266968,137.655579 
	C610.717224,140.823151 612.565918,146.821091 612.110107,153.639145 
	C611.855591,157.446701 611.459473,161.244766 610.698730,165.422012 
M189.646271,176.255615 
	C187.878036,176.730850 186.124191,177.270172 184.339294,177.671295 
	C168.416031,181.249878 152.854065,174.291443 146.785294,160.125458 
	C140.010178,144.310730 141.697891,128.902054 152.361313,115.382950 
	C161.517487,103.774727 174.226227,99.926270 188.625977,102.996468 
	C202.069138,105.862701 209.891190,114.816711 213.083710,127.882660 
	C215.248917,136.744186 213.859879,145.404083 210.712433,153.863632 
	C210.232300,155.154099 209.560272,157.155685 210.152817,157.939545 
	C215.116959,164.506638 220.355927,170.866013 225.800308,177.646942 
	C227.153168,175.882553 228.134567,174.780884 228.918533,173.553116 
	C238.664688,158.289566 242.246216,141.546280 239.177673,123.832657 
	C235.819092,104.444809 225.038895,90.138756 206.509155,82.735313 
	C168.654160,67.610588 127.082497,89.367775 118.436707,129.123062 
	C113.259537,152.928864 117.825508,174.791763 137.875870,190.327011 
	C157.823303,205.782516 180.235336,206.085052 203.801529,196.822433 
	C205.084396,197.796280 206.371002,198.765228 207.649445,199.744843 
	C212.922195,203.785110 217.798050,208.532227 223.533066,211.747147 
	C246.370667,224.549316 270.935852,226.491470 296.229340,221.726135 
	C308.769989,219.363434 320.879456,215.553635 331.647705,208.238754 
	C328.202057,208.453293 324.851196,209.031693 321.508789,209.655548 
	C276.635406,218.031296 238.657196,207.832642 210.671387,169.354294 
	C205.139755,161.748734 198.338654,154.901428 191.337097,148.574081 
	C183.546967,141.534088 173.989212,138.095276 163.228134,139.249496 
	C161.660767,139.417603 160.152374,140.135880 158.616684,140.599594 
	C175.858353,147.151932 184.197601,160.737900 189.646271,176.255615 
M251.162262,141.356812 
	C249.908813,151.760696 247.886887,162.143311 247.597931,172.573914 
	C247.242905,185.390106 253.397263,194.952454 265.612549,199.870331 
	C294.260315,211.403915 322.224396,196.300735 327.697113,166.090149 
	C330.426270,151.024323 332.376984,135.816803 334.617310,120.664139 
	C334.847229,119.108864 334.648193,117.490158 334.648193,115.530716 
	C328.323303,115.530716 322.350494,115.696327 316.392883,115.466484 
	C313.003967,115.335747 311.796051,116.595604 311.326874,119.905602 
	C309.504028,132.764786 307.467712,145.595520 305.342834,158.408997 
	C304.692169,162.332657 303.901611,166.320297 302.480469,170.011200 
	C299.333527,178.184158 290.335999,182.271515 281.473633,179.982803 
	C274.345764,178.142044 271.027466,171.885635 272.293060,162.413910 
	C273.594025,152.677383 275.031189,142.959106 276.351410,133.225052 
	C277.123383,127.533363 277.783051,121.826447 278.566742,115.536690 
	C271.510254,115.536690 265.211548,115.707306 258.928528,115.467026 
	C255.627792,115.340797 254.659973,116.709564 254.300903,119.725067 
	C253.474213,126.667725 252.323212,133.571762 251.162262,141.356812 
M438.961914,199.437698 
	C445.589478,196.583206 451.292603,192.597153 455.741425,186.408600 
	C450.525879,181.718246 445.746582,177.420227 440.930206,173.088852 
	C439.142059,174.569000 437.798737,175.810623 436.328369,176.876953 
	C426.765045,183.812332 413.460327,181.908203 407.546326,172.793747 
	C400.821350,162.429459 404.094116,146.189072 414.433990,139.393585 
	C424.531067,132.757675 436.668182,134.294083 445.229309,143.064636 
	C450.730865,138.442093 456.255249,133.800385 461.849426,129.100021 
	C456.727051,121.475624 450.276398,116.990356 442.194458,115.095840 
	C430.512177,112.357346 419.016632,113.171066 407.978516,118.074043 
	C386.044891,127.816673 374.579590,153.810013 382.094208,176.568588 
	C389.273773,198.312531 413.627350,208.361908 438.961914,199.437698 
M350.929657,117.510475 
	C346.885040,144.917435 342.840393,172.324387 338.765778,199.934692 
	C347.341980,199.934692 354.903290,199.934692 362.814636,199.934692 
	C366.720764,171.822586 370.581451,144.037689 374.599213,115.122391 
	C366.170166,115.703384 358.686462,116.219215 350.929657,117.510475 
M721.824463,137.276962 
	C728.342468,139.935104 731.049072,143.981644 731.079224,151.113266 
	C731.107178,157.736923 730.977844,157.852844 724.528442,157.881760 
	C718.530396,157.908630 712.488464,157.549698 706.548035,158.160263 
	C701.481812,158.680984 696.283997,159.725220 691.586792,161.629272 
	C683.610107,164.862671 678.887085,171.111389 678.041016,179.894547 
	C677.255859,188.045410 679.919922,194.735764 687.029724,199.115799 
	C692.618835,202.558929 698.842163,203.315994 705.325745,202.565109 
	C713.515076,201.616684 720.101929,197.676132 726.068604,190.854996 
	C725.688538,194.706039 725.419678,197.430374 725.155212,200.110443 
	C733.312073,201.498657 733.717712,201.226746 734.720581,194.164001 
	C736.661743,180.493362 738.860779,166.852539 740.445862,153.140747 
	C741.364807,145.191650 739.205505,137.853607 732.765625,132.469803 
	C722.948303,124.262375 699.554993,125.840034 690.568909,135.200897 
	C693.319275,141.900009 693.250549,141.729996 699.605103,139.160385 
	C706.495789,136.374023 713.623962,134.899628 721.824463,137.276962 
M791.913025,137.624954 
	C793.160950,134.511490 794.408813,131.398026 796.061646,127.274117 
	C783.369202,127.411392 775.744995,133.395935 768.805420,141.350128 
	C769.150574,137.369766 769.495667,133.389404 769.836609,129.457657 
	C760.971436,128.367813 761.107971,128.386658 760.058472,135.990952 
	C757.971252,151.113464 755.690918,166.209244 753.545837,181.323929 
	C752.652039,187.621994 751.900269,193.940170 751.086548,200.228409 
	C760.082886,201.361786 760.212646,201.381668 761.385437,193.727936 
	C763.019287,183.064804 764.404663,172.363861 765.953186,161.687332 
	C767.731567,149.425964 779.162292,138.562988 791.913025,137.624954 
M359.024353,80.365036 
	C353.275696,84.974495 351.064575,91.074493 353.004089,96.973732 
	C354.768219,102.339439 359.662598,105.763901 365.602264,105.788330 
	C371.985321,105.814590 377.824097,101.965950 379.957733,96.069199 
	C381.854095,90.828140 381.442078,85.738274 377.277527,81.737854 
	C371.997833,76.666267 365.894928,77.122650 359.024353,80.365036 
z"/>
<path fill="#1F9041" opacity="1.000000" stroke="none" 
	d="
M203.105652,196.660446 
	C180.235336,206.085052 157.823303,205.782516 137.875870,190.327011 
	C117.825508,174.791763 113.259537,152.928864 118.436707,129.123062 
	C127.082497,89.367775 168.654160,67.610588 206.509155,82.735313 
	C225.038895,90.138756 235.819092,104.444809 239.177673,123.832657 
	C242.246216,141.546280 238.664688,158.289566 228.918533,173.553116 
	C228.134567,174.780884 227.153168,175.882553 225.800308,177.646942 
	C220.355927,170.866013 215.116959,164.506638 210.152817,157.939545 
	C209.560272,157.155685 210.232300,155.154099 210.712433,153.863632 
	C213.859879,145.404083 215.248917,136.744186 213.083710,127.882660 
	C209.891190,114.816711 202.069138,105.862701 188.625977,102.996468 
	C174.226227,99.926270 161.517487,103.774727 152.361313,115.382950 
	C141.697891,128.902054 140.010178,144.310730 146.785294,160.125458 
	C152.854065,174.291443 168.416031,181.249878 184.339294,177.671295 
	C186.124191,177.270172 187.878036,176.730850 190.303528,176.411255 
	C195.009079,183.264740 199.057373,189.962585 203.105652,196.660446 
z"/>
<path fill="#1F8F42" opacity="1.000000" stroke="none" 
	d="
M251.233032,140.924133 
	C252.323212,133.571762 253.474213,126.667725 254.300903,119.725067 
	C254.659973,116.709564 255.627792,115.340797 258.928528,115.467026 
	C265.211548,115.707306 271.510254,115.536690 278.566742,115.536690 
	C277.783051,121.826447 277.123383,127.533363 276.351410,133.225052 
	C275.031189,142.959106 273.594025,152.677383 272.293060,162.413910 
	C271.027466,171.885635 274.345764,178.142044 281.473633,179.982803 
	C290.335999,182.271515 299.333527,178.184158 302.480469,170.011200 
	C303.901611,166.320297 304.692169,162.332657 305.342834,158.408997 
	C307.467712,145.595520 309.504028,132.764786 311.326874,119.905602 
	C311.796051,116.595604 313.003967,115.335747 316.392883,115.466484 
	C322.350494,115.696327 328.323303,115.530716 334.648193,115.530716 
	C334.648193,117.490158 334.847229,119.108864 334.617310,120.664139 
	C332.376984,135.816803 330.426270,151.024323 327.697113,166.090149 
	C322.224396,196.300735 294.260315,211.403915 265.612549,199.870331 
	C253.397263,194.952454 247.242905,185.390106 247.597931,172.573914 
	C247.886887,162.143311 249.908813,151.760696 251.233032,140.924133 
z"/>
<path fill="#1F9044" opacity="1.000000" stroke="none" 
	d="
M438.607758,199.590088 
	C413.627350,208.361908 389.273773,198.312531 382.094208,176.568588 
	C374.579590,153.810013 386.044891,127.816673 407.978516,118.074043 
	C419.016632,113.171066 430.512177,112.357346 442.194458,115.095840 
	C450.276398,116.990356 456.727051,121.475624 461.849426,129.100021 
	C456.255249,133.800385 450.730865,138.442093 445.229309,143.064636 
	C436.668182,134.294083 424.531067,132.757675 414.433990,139.393585 
	C404.094116,146.189072 400.821350,162.429459 407.546326,172.793747 
	C413.460327,181.908203 426.765045,183.812332 436.328369,176.876953 
	C437.798737,175.810623 439.142059,174.569000 440.930206,173.088852 
	C445.746582,177.420227 450.525879,181.718246 455.741425,186.408600 
	C451.292603,192.597153 445.589478,196.583206 438.607758,199.590088 
z"/>
<path fill="#9C9C9C" opacity="1.000000" stroke="none" 
	d="
M609.072327,179.026917 
	C609.517456,175.290573 609.962524,171.554230 610.789673,167.331390 
	C611.156799,166.245636 611.142029,165.646378 611.127197,165.047119 
	C611.459473,161.244766 611.855591,157.446701 612.110107,153.639145 
	C612.565918,146.821091 610.717224,140.823151 604.266968,137.655579 
	C597.178589,134.174652 590.226562,135.569244 584.128479,140.347275 
	C578.531982,144.732330 575.193909,150.706345 574.104065,157.684616 
	C572.231934,169.671753 570.576172,181.695328 569.020935,193.728348 
	C568.014709,201.513672 568.001526,201.647873 558.680054,200.072495 
	C561.908203,176.667130 565.141174,153.226990 568.431641,129.369659 
	C571.067444,129.369659 573.622803,129.369659 576.670410,129.369659 
	C576.670410,131.679214 576.670410,134.078857 576.670410,137.984055 
	C584.125183,131.206665 591.171204,126.469162 600.632507,126.957764 
	C610.335388,127.458862 616.804077,132.216553 621.801208,142.688141 
	C622.693359,140.721634 623.005127,139.584686 623.648743,138.685150 
	C630.313477,129.370346 639.605042,125.962967 650.681824,127.217331 
	C662.360840,128.539902 670.955627,139.808624 669.505066,152.002594 
	C667.738037,166.856033 665.666870,181.673737 663.667236,196.498810 
	C663.013855,201.343231 660.924500,202.023285 653.398193,199.775513 
	C655.094604,187.371948 656.844177,174.902924 658.478577,162.418793 
	C658.930725,158.965149 659.257629,155.467255 659.267456,151.988617 
	C659.301086,140.119614 650.197449,133.246323 638.737305,136.562241 
	C629.520325,139.229126 624.407654,146.112396 622.014832,154.869598 
	C620.403809,160.765442 619.982056,166.983337 618.975220,173.048355 
	C618.416382,176.414688 617.748596,179.762924 616.879883,183.673431 
	C616.726135,184.808441 616.822388,185.389313 616.918640,185.970200 
	C616.399963,190.062576 615.881226,194.154968 614.975830,198.731506 
	C614.389954,199.498749 614.190796,199.781815 613.991577,200.064880 
	C612.330750,200.117798 610.668213,200.140350 609.009399,200.230667 
	C606.417175,200.371811 605.806763,199.048492 606.766479,196.322189 
	C607.116760,195.242661 607.091919,194.634018 607.067017,194.025391 
	C607.158630,192.615799 607.250244,191.206207 607.749084,189.306519 
	C608.144531,187.893295 608.132874,186.970154 608.121155,186.047028 
	C608.210205,184.628860 608.299255,183.210678 608.771729,181.319916 
	C609.127502,180.240524 609.099915,179.633713 609.072327,179.026917 
z"/>
<path fill="#1E8E43" opacity="1.000000" stroke="none" 
	d="
M351.066223,117.122757 
	C358.686462,116.219215 366.170166,115.703384 374.599213,115.122391 
	C370.581451,144.037689 366.720764,171.822586 362.814636,199.934692 
	C354.903290,199.934692 347.341980,199.934692 338.765778,199.934692 
	C342.840393,172.324387 346.885040,144.917435 351.066223,117.122757 
z"/>
<path fill="#9B9B9C" opacity="1.000000" stroke="none" 
	d="
M721.438965,137.157135 
	C713.623962,134.899628 706.495789,136.374023 699.605103,139.160385 
	C693.250549,141.729996 693.319275,141.900009 690.568909,135.200897 
	C699.554993,125.840034 722.948303,124.262375 732.765625,132.469803 
	C739.205505,137.853607 741.364807,145.191650 740.445862,153.140747 
	C738.860779,166.852539 736.661743,180.493362 734.720581,194.164001 
	C733.717712,201.226746 733.312073,201.498657 725.155212,200.110443 
	C725.419678,197.430374 725.688538,194.706039 726.068604,190.854996 
	C720.101929,197.676132 713.515076,201.616684 705.325745,202.565109 
	C698.842163,203.315994 692.618835,202.558929 687.029724,199.115799 
	C679.919922,194.735764 677.255859,188.045410 678.041016,179.894547 
	C678.887085,171.111389 683.610107,164.862671 691.586792,161.629272 
	C696.283997,159.725220 701.481812,158.680984 706.548035,158.160263 
	C712.488464,157.549698 718.530396,157.908630 724.528442,157.881760 
	C730.977844,157.852844 731.107178,157.736923 731.079224,151.113266 
	C731.049072,143.981644 728.342468,139.935104 721.438965,137.157135 
M701.744873,194.234436 
	C718.199646,195.808899 729.828491,182.844131 728.533997,165.479279 
	C728.103210,165.333679 727.643860,165.046326 727.182251,165.042709 
	C722.195435,165.003601 717.168762,164.615341 712.231934,165.110184 
	C707.007629,165.633820 701.610107,166.329132 696.754395,168.175537 
	C689.816162,170.813828 686.953064,176.787170 687.965454,183.772705 
	C688.777405,189.374573 693.525757,193.218170 701.744873,194.234436 
z"/>
<path fill="#99999B" opacity="1.000000" stroke="none" 
	d="
M808.022461,149.008636 
	C808.122314,147.603958 808.222046,146.199295 808.705933,144.329193 
	C809.078674,143.249619 809.067261,142.635468 809.055847,142.021317 
	C809.055847,140.405655 809.055847,138.789993 809.055847,136.282166 
	C806.664856,136.282166 804.472900,136.193054 802.291321,136.305161 
	C799.681824,136.439255 798.601807,135.438980 799.735046,132.313019 
	C800.441345,130.930832 800.728149,130.055420 801.014893,129.179993 
	C803.315552,129.114975 805.706238,129.404388 807.882935,128.851608 
	C809.182251,128.521652 810.145996,126.870750 811.665771,125.326309 
	C812.065308,123.899757 812.059692,122.960579 812.054016,122.021393 
	C812.149475,120.611351 812.244873,119.201317 812.725464,117.326523 
	C813.109070,116.254684 813.107483,115.647583 813.105957,115.040497 
	C813.410828,112.282585 813.715698,109.524673 814.076233,106.262733 
	C816.404358,106.400017 818.315247,106.512703 820.694336,106.968956 
	C821.429749,107.539803 821.697021,107.767067 821.964294,107.994324 
	C821.268433,114.718094 820.572571,121.441872 819.803162,128.876007 
	C825.715332,128.876007 831.101562,128.876007 836.358765,128.876007 
	C837.514160,136.443222 837.210022,136.832291 830.736938,136.866409 
	C818.686768,136.929932 818.637817,136.922607 816.889893,148.568878 
	C815.474121,158.001984 814.135559,167.447632 812.867615,176.901749 
	C810.828125,192.108643 813.519348,194.838074 828.064026,192.510223 
	C830.056763,199.358566 828.868225,201.214539 821.970032,202.026398 
	C811.424072,203.267624 806.068604,200.330551 803.370728,191.040436 
	C803.439148,187.939865 803.242493,185.479538 803.045776,183.019196 
	C803.131226,181.613251 803.216675,180.207321 803.685059,178.334457 
	C804.053040,177.247925 804.037964,176.628326 804.022888,176.008713 
	C804.124878,174.602798 804.226868,173.196899 804.715454,171.325592 
	C805.087524,170.247559 805.073059,169.634949 805.058594,169.022324 
	C805.147583,167.614929 805.236633,166.207550 805.706604,164.331573 
	C806.069336,163.246155 806.051147,162.629333 806.032959,162.012512 
	C806.141479,160.602509 806.250000,159.192505 806.747925,157.318069 
	C807.125427,156.248566 807.113586,155.643478 807.101746,155.038406 
	C807.174744,153.950180 807.247803,152.861954 807.701782,151.318924 
	C808.062683,150.245621 808.042603,149.627136 808.022461,149.008636 
z"/>
<path fill="#375987" opacity="1.000000" stroke="none" 
	d="
M203.453583,196.741440 
	C199.057373,189.962585 195.009079,183.264740 190.723083,176.377655 
	C184.197601,160.737900 175.858353,147.151932 158.616684,140.599594 
	C160.152374,140.135880 161.660767,139.417603 163.228134,139.249496 
	C173.989212,138.095276 183.546967,141.534088 191.337097,148.574081 
	C198.338654,154.901428 205.139755,161.748734 210.671387,169.354294 
	C238.657196,207.832642 276.635406,218.031296 321.508789,209.655548 
	C324.851196,209.031693 328.202057,208.453293 331.647705,208.238754 
	C320.879456,215.553635 308.769989,219.363434 296.229340,221.726135 
	C270.935852,226.491470 246.370667,224.549316 223.533066,211.747147 
	C217.798050,208.532227 212.922195,203.785110 207.649445,199.744843 
	C206.371002,198.765228 205.084396,197.796280 203.453583,196.741440 
M266.918701,222.032898 
	C269.606079,222.032349 272.293488,222.031815 275.893219,222.042465 
	C288.907227,221.545258 301.632416,219.767548 313.626312,214.747757 
	C313.541443,214.154083 313.456543,213.560394 313.371674,212.966721 
	C300.242798,212.966721 287.113892,212.966721 273.276123,212.645020 
	C257.494019,210.229477 242.988342,204.105316 231.204865,193.708527 
	C220.839600,184.563034 212.254791,173.377151 203.052338,162.943619 
	C196.297928,155.285645 189.329254,147.906784 179.699387,143.912430 
	C176.584702,142.620483 173.057877,142.322098 168.698257,141.338898 
	C169.525223,143.366058 169.575317,143.963242 169.893494,144.199707 
	C178.770538,150.796829 184.811661,159.652237 189.791580,169.310776 
	C195.494766,180.372055 201.250748,191.511734 210.568130,199.962341 
	C225.341873,213.361755 242.908646,220.445786 263.395813,221.575180 
	C264.271606,221.722748 265.147369,221.870300 266.918701,222.032898 
z"/>
<path fill="#9C9C9D" opacity="1.000000" stroke="none" 
	d="
M791.504150,137.672455 
	C779.162292,138.562988 767.731567,149.425964 765.953186,161.687332 
	C764.404663,172.363861 763.019287,183.064804 761.385437,193.727936 
	C760.212646,201.381668 760.082886,201.361786 751.086548,200.228409 
	C751.900269,193.940170 752.652039,187.621994 753.545837,181.323929 
	C755.690918,166.209244 757.971252,151.113464 760.058472,135.990952 
	C761.107971,128.386658 760.971436,128.367813 769.836609,129.457657 
	C769.495667,133.389404 769.150574,137.369766 768.805420,141.350128 
	C775.744995,133.395935 783.369202,127.411392 796.061646,127.274117 
	C794.408813,131.398026 793.160950,134.511490 791.504150,137.672455 
z"/>
<path fill="#218D45" opacity="1.000000" stroke="none" 
	d="
M359.354431,80.177856 
	C365.894928,77.122650 371.997833,76.666267 377.277527,81.737854 
	C381.442078,85.738274 381.854095,90.828140 379.957733,96.069199 
	C377.824097,101.965950 371.985321,105.814590 365.602264,105.788330 
	C359.662598,105.763901 354.768219,102.339439 353.004089,96.973732 
	C351.064575,91.074493 353.275696,84.974495 359.354431,80.177856 
z"/>
<path fill="#ECF6CE" opacity="1.000000" stroke="none" 
	d="
M612.946777,54.054432 
	C613.573181,55.645008 615.052185,57.461033 614.700012,58.792843 
	C607.736450,85.126457 593.045288,104.162659 563.902954,109.773186 
	C561.809509,110.176231 559.591248,109.964188 557.430542,109.978966 
	C549.895142,110.030502 549.895081,110.020630 551.602661,102.812325 
	C546.075378,102.073227 545.063232,100.506912 546.313538,94.627853 
	C550.746704,73.783142 565.963379,58.966881 587.316589,55.022305 
	C594.275391,53.736816 601.325256,52.906902 608.360474,52.104954 
	C609.790527,51.941944 611.341675,52.840775 612.445618,53.671959 
	C606.374207,54.691006 600.694153,55.288193 594.672913,55.847752 
	C593.476135,56.059750 592.620483,56.309372 591.414795,56.545853 
	C590.379639,56.666737 589.694580,56.800766 588.642090,56.927231 
	C586.458313,57.508953 584.642090,58.098232 582.507080,58.688011 
	C581.420898,59.002476 580.653442,59.316441 579.515869,59.693119 
	C560.696289,66.240776 547.634644,83.461197 548.471558,98.666359 
	C556.480164,91.889748 565.136169,84.565338 573.862976,77.761246 
	C574.021912,78.975533 574.109985,79.669525 573.983704,80.607452 
	C564.840149,88.348526 558.426331,97.804382 551.191895,108.630440 
	C557.232849,107.994720 561.721985,107.884346 566.053040,107.000046 
	C580.227844,104.105911 592.048035,97.364845 600.517700,84.888390 
	C607.440125,75.525650 611.483398,65.300735 612.946777,54.054432 
z"/>
<path fill="#2A914C" opacity="1.000000" stroke="none" 
	d="
M495.403076,117.152313 
	C495.282532,117.862091 495.161987,118.571869 494.787964,119.921555 
	C494.440369,122.075363 494.346344,123.589272 494.252289,125.103172 
	C494.167389,125.521873 494.082520,125.940582 493.760437,126.930504 
	C493.542114,128.396194 493.560913,129.290665 493.579742,130.185135 
	C493.402985,131.198273 493.226227,132.211426 492.785950,133.875336 
	C492.475159,135.731964 492.427856,136.937836 492.380554,138.143707 
	C492.251740,138.853790 492.122894,139.563858 491.740723,140.942444 
	C491.143402,143.769440 490.799438,145.927902 490.153198,147.939240 
	C490.237335,141.633087 490.426331,135.453766 491.057709,129.319962 
	C491.935272,120.794441 493.196320,112.309143 494.193909,103.795006 
	C494.884583,97.900230 495.587524,91.994240 495.864563,86.073593 
	C495.925018,84.781700 494.384583,82.481110 493.254608,82.251175 
	C490.431885,81.676765 487.374573,81.707703 484.505096,82.131004 
	C482.968170,82.357727 480.822449,83.601410 480.343689,84.899590 
	C478.864563,88.910591 477.749420,93.117126 477.041351,97.339691 
	C474.912750,110.033401 472.977905,122.760918 471.095032,135.494110 
	C469.621826,145.457001 468.341156,155.448364 466.970398,165.426437 
	C465.982300,172.618896 464.986786,179.810333 463.941406,187.408997 
	C463.600189,190.576782 463.006073,193.358536 463.190796,196.087570 
	C463.255066,197.037308 465.222229,198.567581 466.359650,198.603958 
	C469.944946,198.718658 473.554260,198.003708 477.143890,198.082840 
	C480.260345,198.151550 481.364838,196.928284 481.296509,193.760651 
	C482.399170,189.363983 483.131470,185.193619 484.132507,181.088791 
	C484.323669,180.305161 485.575317,179.780136 486.238586,179.532745 
	C485.893005,182.670517 485.646545,185.411331 485.400055,188.152145 
	C485.272552,188.860275 485.145050,189.568390 484.766174,190.920807 
	C484.437073,193.081299 484.359314,194.597519 484.281555,196.113739 
	C484.038544,197.304993 483.795563,198.496262 482.855774,199.914307 
	C475.066986,200.191360 467.974976,200.241592 460.882996,200.291840 
	C460.649475,200.030746 460.415924,199.769669 460.348816,198.950027 
	C460.845398,194.870346 461.175537,191.349197 461.505707,187.828064 
	C461.639679,187.123703 461.773621,186.419327 462.161591,185.062439 
	C462.539703,182.575180 462.663818,180.740417 462.787903,178.905655 
	C462.871490,178.486893 462.955078,178.068115 463.274170,177.049805 
	C463.533508,175.247375 463.557343,174.044510 463.581177,172.841644 
	C463.702820,172.134216 463.824463,171.426804 464.189148,170.061218 
	C464.540161,167.567596 464.648193,165.732117 464.756226,163.896637 
	C464.839081,163.478821 464.921936,163.061020 465.241028,162.044159 
	C465.493835,160.240829 465.510406,159.036560 465.526978,157.832291 
	C465.661530,157.127167 465.796112,156.422058 466.181213,155.071259 
	C466.523895,152.911041 466.616089,151.396500 466.708282,149.881943 
	C466.802338,149.467575 466.896393,149.053207 467.212433,148.099274 
	C467.391632,146.974854 467.348846,146.389999 467.306061,145.805130 
	C467.537903,144.476715 467.769745,143.148285 468.254150,141.142899 
	C468.563141,139.267975 468.619568,138.070023 468.676025,136.872070 
	C468.764618,136.458099 468.853271,136.044113 469.187897,135.024963 
	C469.514221,132.902084 469.594574,131.384369 469.674957,129.866669 
	C469.757874,129.453888 469.840790,129.041122 470.170288,128.012634 
	C470.831512,123.551727 471.246124,119.706535 471.660706,115.861336 
	C471.748230,115.450401 471.835754,115.039467 472.172852,114.029129 
	C472.516479,111.912743 472.610504,110.395744 472.704529,108.878754 
	C472.792358,108.464500 472.880157,108.050255 473.207825,107.042007 
	C473.482819,105.244904 473.517944,104.041794 473.553101,102.838692 
	C473.674530,102.131088 473.795959,101.423485 474.162231,100.069031 
	C474.486115,97.903015 474.565094,96.383858 474.644104,94.864693 
	C474.766296,94.152222 474.888489,93.439743 475.247498,92.087120 
	C475.503998,90.242760 475.523682,89.038551 475.543396,87.834343 
	C475.668945,87.128113 475.794495,86.421875 476.159058,85.095184 
	C476.927582,82.627007 477.457092,80.779282 477.986572,78.931549 
	C484.340973,78.953362 490.695374,78.975174 497.771851,79.133698 
	C499.063660,79.498543 499.633392,79.726677 500.203156,79.954811 
	C500.147888,80.717850 500.092590,81.480896 499.810364,82.900269 
	C499.548828,84.760773 499.514191,85.964943 499.479584,87.169113 
	C499.318970,88.186310 499.158356,89.203506 498.750427,90.894333 
	C498.447357,93.088654 498.391571,94.609344 498.335815,96.130043 
	C498.248505,96.544403 498.161224,96.958771 497.828491,97.960701 
	C497.543365,99.753922 497.503693,100.959579 497.464050,102.165237 
	C497.336609,102.871841 497.209229,103.578445 496.824921,104.926941 
	C496.498901,107.092125 496.429810,108.615433 496.360718,110.138733 
	C496.232971,110.850121 496.105255,111.561508 495.728271,112.906731 
	C495.453735,114.744484 495.428406,115.948395 495.403076,117.152313 
z"/>
<path fill="#2A914C" opacity="1.000000" stroke="none" 
	d="
M541.377014,197.501007 
	C541.481262,198.339203 541.585571,199.177399 540.950378,200.084854 
	C532.444031,200.175552 524.677124,200.196991 516.910217,200.218445 
	C516.674744,199.967606 516.439331,199.716766 516.073853,198.926575 
	C515.186035,197.085510 514.428101,195.783768 513.670227,194.482040 
	C513.347778,193.741562 513.025269,193.001099 512.528931,191.709869 
	C512.023376,190.662521 511.691742,190.165924 511.360107,189.669312 
	C510.610687,188.012817 509.861267,186.356339 508.968475,184.048157 
	C508.465088,182.278397 508.105042,181.160324 508.119019,180.070404 
	C511.031738,184.822845 513.504333,189.584656 516.150391,194.248062 
	C516.922058,195.608093 518.133423,197.670700 519.236938,197.732285 
	C525.346130,198.073120 531.484192,197.895523 537.951477,197.895523 
	C537.143677,194.445221 536.517944,191.772720 535.986450,189.018158 
	C536.080566,188.936096 536.270142,188.773468 536.474854,188.946411 
	C537.053589,189.485977 537.427673,189.852600 537.801758,190.219208 
	C537.801758,190.219208 537.910400,190.602158 537.986755,191.070618 
	C538.501587,192.193710 538.940002,192.848343 539.378479,193.502960 
	C539.519897,193.833908 539.661316,194.164841 539.918701,195.026154 
	C540.482117,196.204681 540.929565,196.852844 541.377014,197.501007 
z"/>
<path fill="#B2E2C3" opacity="1.000000" stroke="none" 
	d="
M490.455475,148.086395 
	C490.799438,145.927902 491.143402,143.769440 491.738037,141.304169 
	C493.753296,144.025360 495.254913,142.523804 496.939392,140.822052 
	C504.189819,133.497284 511.467285,126.198456 518.815857,118.972527 
	C520.070557,117.738838 521.720154,116.906822 523.430176,116.176994 
	C523.352173,116.935333 523.031250,117.405922 522.420044,118.017632 
	C513.062195,127.269737 504.028748,136.415176 494.885529,145.449570 
	C493.698883,146.622040 491.946045,147.221497 490.455475,148.086395 
z"/>
<path fill="#2A914C" opacity="1.000000" stroke="none" 
	d="
M523.460876,161.469223 
	C523.606262,161.798340 523.751709,162.127472 524.023315,163.045181 
	C525.908081,166.918228 527.666565,170.202682 529.425110,173.487152 
	C529.564270,173.818329 529.703491,174.149506 529.947754,175.011871 
	C530.490112,176.197662 530.927307,176.852249 531.364563,177.506851 
	C532.142883,179.136856 532.921265,180.766846 533.875488,183.029099 
	C534.790955,185.365402 535.530518,187.069427 536.270142,188.773468 
	C536.270142,188.773468 536.080566,188.936096 535.661621,188.923248 
	C529.468933,176.959076 523.695129,165.007751 518.028931,152.970337 
	C518.136414,152.884247 518.350220,152.710587 518.545837,152.893433 
	C519.123047,153.429367 519.504700,153.782455 519.886292,154.135544 
	C520.549438,155.535431 521.212585,156.935318 522.014709,158.916367 
	C522.589355,160.154770 523.025146,160.811996 523.460876,161.469223 
z"/>
<path fill="#2A914C" opacity="1.000000" stroke="none" 
	d="
M522.710327,117.876511 
	C523.031250,117.405922 523.352173,116.935333 523.786926,116.201859 
	C531.602478,115.898697 539.304504,115.804916 547.005310,115.870079 
	C548.309082,115.881104 549.607056,116.575958 550.545776,117.447128 
	C548.578430,119.398399 546.973022,120.857407 545.254883,122.217941 
	C545.142090,122.119476 544.917725,121.921188 544.945679,121.506927 
	C545.293213,118.132111 543.415649,117.959778 541.191223,117.968140 
	C535.031067,117.991325 528.870667,117.914070 522.710327,117.876511 
z"/>
<path fill="#2A914C" opacity="1.000000" stroke="none" 
	d="
M525.680908,142.723663 
	C523.930908,144.329819 522.180908,145.935974 519.886902,147.895370 
	C519.012024,149.735947 518.681091,151.223267 518.350220,152.710587 
	C518.350220,152.710587 518.136414,152.884247 517.735596,152.776215 
	C517.365112,150.812439 516.633362,148.310074 517.561523,147.216019 
	C521.058044,143.094788 524.998169,139.326294 528.994995,135.669159 
	C530.038330,134.714478 531.887817,134.640793 533.205383,134.465103 
	C530.589417,137.419708 528.135132,140.071686 525.680908,142.723663 
z"/>
<path fill="#B2E2C3" opacity="1.000000" stroke="none" 
	d="
M517.041260,200.584259 
	C524.677124,200.196991 532.444031,200.175552 540.673096,200.282211 
	C540.828186,200.784836 540.515442,201.490692 540.215027,201.485458 
	C532.533325,201.352264 524.852905,201.144699 517.041260,200.584259 
z"/>
<path fill="#B2E2C3" opacity="1.000000" stroke="none" 
	d="
M461.027771,200.650482 
	C467.974976,200.241592 475.066986,200.191360 482.630920,200.201950 
	C482.836914,200.667358 482.566315,201.427979 482.305542,201.424606 
	C475.260559,201.333878 468.216644,201.164917 461.027771,200.650482 
z"/>
<path fill="#B2E2C3" opacity="1.000000" stroke="none" 
	d="
M526.037354,142.770905 
	C528.135132,140.071686 530.589417,137.419708 533.464233,134.317383 
	C534.980957,132.709473 536.077087,131.551910 537.460083,130.297165 
	C538.126526,130.080841 538.506042,129.961716 538.885620,129.842575 
	C534.721680,134.167770 530.557739,138.492950 526.037354,142.770905 
z"/>
<path fill="#B2E2C3" opacity="1.000000" stroke="none" 
	d="
M485.722290,188.003967 
	C485.646545,185.411331 485.893005,182.670517 486.504272,179.368805 
	C488.635284,177.001465 490.401520,175.195023 492.458252,173.292786 
	C493.135590,173.088425 493.522461,172.979874 493.909302,172.871307 
	C493.647675,173.615753 493.612457,174.652283 493.088562,175.058441 
	C488.873657,178.325897 486.747314,182.685303 485.722290,188.003967 
z"/>
<path fill="#B2E2C3" opacity="1.000000" stroke="none" 
	d="
M471.326660,116.006149 
	C471.246124,119.706535 470.831512,123.551727 470.166718,127.696037 
	C470.275208,124.047089 470.633911,120.099030 471.326660,116.006149 
z"/>
<path fill="#2A914C" opacity="1.000000" stroke="none" 
	d="
M539.069092,129.576462 
	C538.506042,129.961716 538.126526,130.080841 537.428040,129.921249 
	C539.711975,127.068733 542.314880,124.494957 544.917725,121.921188 
	C544.917725,121.921188 545.142090,122.119476 545.141724,122.472984 
	C545.041382,123.178772 544.941467,123.531052 544.841553,123.883331 
	C542.978577,125.692345 541.115601,127.501350 539.069092,129.576462 
z"/>
<path fill="#B2E2C3" opacity="1.000000" stroke="none" 
	d="
M507.744995,180.042236 
	C508.105042,181.160324 508.465088,182.278397 508.802032,183.748871 
	C506.997131,180.788315 505.215332,177.475357 503.833160,173.996506 
	C505.024811,175.077957 505.816864,176.325302 506.610016,177.696075 
	C506.611115,177.819519 506.806824,177.977875 506.856720,178.303726 
	C507.189941,178.953583 507.473297,179.277588 507.710693,179.710632 
	C507.664795,179.819656 507.745026,180.042236 507.744995,180.042236 
z"/>
<path fill="#B2E2C3" opacity="1.000000" stroke="none" 
	d="
M461.194916,187.995544 
	C461.175537,191.349197 460.845398,194.870346 460.275482,198.696564 
	C460.318542,195.388763 460.601349,191.775894 461.194916,187.995544 
z"/>
<path fill="#2A914C" opacity="1.000000" stroke="none" 
	d="
M506.608917,177.572632 
	C505.816864,176.325302 505.024811,175.077957 503.984772,173.641068 
	C503.281158,172.479294 502.825531,171.507065 502.228943,169.934937 
	C502.028961,168.899277 501.969940,168.463531 502.266479,168.065369 
	C503.950989,171.259521 505.279938,174.416077 506.608917,177.572632 
z"/>
<path fill="#B2E2C3" opacity="1.000000" stroke="none" 
	d="
M529.562988,173.120667 
	C527.666565,170.202682 525.908081,166.918228 524.169922,163.272171 
	C526.027100,166.191772 527.864014,169.472992 529.562988,173.120667 
z"/>
<path fill="#2A914C" opacity="1.000000" stroke="none" 
	d="
M494.089233,172.626556 
	C493.522461,172.979874 493.135590,173.088425 492.428711,172.917664 
	C493.793610,170.003876 494.616791,166.286926 498.938293,167.389099 
	C498.230377,168.456421 497.638031,169.244156 497.045685,170.031891 
	C496.120178,170.815201 495.194641,171.598495 494.089233,172.626556 
z"/>
<path fill="#B2E2C3" opacity="1.000000" stroke="none" 
	d="
M545.194946,123.896408 
	C544.941467,123.531052 545.041382,123.178772 545.254517,122.571457 
	C546.973022,120.857407 548.578430,119.398399 550.501831,117.865417 
	C549.062622,119.830803 547.305481,121.870148 545.194946,123.896408 
z"/>
<path fill="#9E9FA1" opacity="1.000000" stroke="none" 
	d="
M802.816284,183.317902 
	C803.242493,185.479538 803.439148,187.939865 803.373779,190.675995 
	C802.936707,188.506714 802.761719,186.061646 802.816284,183.317902 
z"/>
<path fill="#B2E2C3" opacity="1.000000" stroke="none" 
	d="
M477.782410,78.707954 
	C477.457092,80.779282 476.927582,82.627007 476.157043,84.735489 
	C476.470093,82.825607 477.024200,80.654984 477.782410,78.707954 
z"/>
<path fill="#B2E2C3" opacity="1.000000" stroke="none" 
	d="
M536.474854,188.946411 
	C535.530518,187.069427 534.790955,185.365402 534.066650,183.310120 
	C535.369507,185.125732 536.656982,187.292587 537.873169,189.839325 
	C537.427673,189.852600 537.053589,189.485977 536.474854,188.946411 
z"/>
<path fill="#B2E2C3" opacity="1.000000" stroke="none" 
	d="
M462.453552,179.011246 
	C462.663818,180.740417 462.539703,182.575180 462.164581,184.702942 
	C461.982117,183.036255 462.050659,181.076538 462.453552,179.011246 
z"/>
<path fill="#B2E2C3" opacity="1.000000" stroke="none" 
	d="
M464.425415,164.008713 
	C464.648193,165.732117 464.540161,167.567596 464.187317,169.701355 
	C463.993225,168.040009 464.043884,166.080399 464.425415,164.008713 
z"/>
<path fill="#B2E2C3" opacity="1.000000" stroke="none" 
	d="
M497.461060,170.031784 
	C497.638031,169.244156 498.230377,168.456421 499.254059,167.339508 
	C500.427216,167.349457 501.169037,167.688629 501.910889,168.027786 
	C501.969940,168.463531 502.028961,168.899277 502.053528,169.663864 
	C500.638184,170.005692 499.257324,170.018677 497.461060,170.031784 
z"/>
<path fill="#B2E2C3" opacity="1.000000" stroke="none" 
	d="
M484.601318,196.006042 
	C484.359314,194.597519 484.437073,193.081299 484.763550,191.281357 
	C484.981842,192.631210 484.951447,194.264786 484.601318,196.006042 
z"/>
<path fill="#B2E2C3" opacity="1.000000" stroke="none" 
	d="
M518.545837,152.893433 
	C518.681091,151.223267 519.012024,149.735947 519.693726,148.158752 
	C520.028503,149.802765 520.012573,151.536667 519.941467,153.703064 
	C519.504700,153.782455 519.123047,153.429367 518.545837,152.893433 
z"/>
<path fill="#B2E2C3" opacity="1.000000" stroke="none" 
	d="
M466.390594,149.990509 
	C466.616089,151.396500 466.523895,152.911041 466.186401,154.711395 
	C465.984985,153.364471 466.028931,151.731781 466.390594,149.990509 
z"/>
<path fill="#B2E2C3" opacity="1.000000" stroke="none" 
	d="
M472.386841,108.987823 
	C472.610504,110.395744 472.516479,111.912743 472.173279,113.713219 
	C471.972443,112.363434 472.020782,110.730164 472.386841,108.987823 
z"/>
<path fill="#B2E2C3" opacity="1.000000" stroke="none" 
	d="
M494.573639,125.000397 
	C494.346344,123.589272 494.440369,122.075363 494.787964,120.282417 
	C494.992706,121.634789 494.943848,123.266212 494.573639,125.000397 
z"/>
<path fill="#B2E2C3" opacity="1.000000" stroke="none" 
	d="
M496.673584,110.021545 
	C496.429810,108.615433 496.498901,107.092125 496.821533,105.286789 
	C497.045532,106.637962 497.015991,108.271164 496.673584,110.021545 
z"/>
<path fill="#B2E2C3" opacity="1.000000" stroke="none" 
	d="
M498.651367,96.014313 
	C498.391571,94.609344 498.447357,93.088654 498.749817,91.281464 
	C498.986633,92.629509 498.976776,94.264053 498.651367,96.014313 
z"/>
<path fill="#B2E2C3" opacity="1.000000" stroke="none" 
	d="
M474.332947,94.982559 
	C474.565094,96.383858 474.486115,97.903015 474.160767,99.709091 
	C473.950195,98.364143 473.986023,96.732292 474.332947,94.982559 
z"/>
<path fill="#B2E2C3" opacity="1.000000" stroke="none" 
	d="
M469.361694,129.982483 
	C469.594574,131.384369 469.514221,132.902084 469.188782,134.706558 
	C468.978577,133.361649 469.013489,131.729965 469.361694,129.982483 
z"/>
<path fill="#B2E2C3" opacity="1.000000" stroke="none" 
	d="
M495.698212,117.035187 
	C495.428406,115.948395 495.453735,114.744484 495.721863,113.268829 
	C495.974213,114.304085 495.983765,115.611076 495.698212,117.035187 
z"/>
<path fill="#B2E2C3" opacity="1.000000" stroke="none" 
	d="
M463.287048,172.960770 
	C463.557343,174.044510 463.533508,175.247375 463.274750,176.728790 
	C463.024170,175.698196 463.008545,174.389053 463.287048,172.960770 
z"/>
<path fill="#B2E2C3" opacity="1.000000" stroke="none" 
	d="
M473.265137,102.962357 
	C473.517944,104.041794 473.482819,105.244904 473.208527,106.723648 
	C472.971954,105.694862 472.974548,104.390434 473.265137,102.962357 
z"/>
<path fill="#B2E2C3" opacity="1.000000" stroke="none" 
	d="
M497.751038,102.040726 
	C497.503693,100.959579 497.543365,99.753922 497.830750,98.279083 
	C498.064972,99.312004 498.051483,100.614105 497.751038,102.040726 
z"/>
<path fill="#B2E2C3" opacity="1.000000" stroke="none" 
	d="
M492.678894,138.033356 
	C492.427856,136.937836 492.475159,135.731964 492.775116,134.261871 
	C493.010925,135.306091 492.994080,136.614548 492.678894,138.033356 
z"/>
<path fill="#B2E2C3" opacity="1.000000" stroke="none" 
	d="
M468.371216,136.972839 
	C468.619568,138.070023 468.563141,139.267975 468.264435,140.736420 
	C468.036896,139.695816 468.051666,138.384705 468.371216,136.972839 
z"/>
<path fill="#B2E2C3" opacity="1.000000" stroke="none" 
	d="
M475.255920,87.960762 
	C475.523682,89.038551 475.503998,90.242760 475.247223,91.724716 
	C474.996246,90.697365 474.982330,89.392273 475.255920,87.960762 
z"/>
<path fill="#B2E2C3" opacity="1.000000" stroke="none" 
	d="
M513.515381,194.823303 
	C514.428101,195.783768 515.186035,197.085510 515.918091,198.720596 
	C515.048462,197.757477 514.204529,196.461014 513.515381,194.823303 
z"/>
<path fill="#B2E2C3" opacity="1.000000" stroke="none" 
	d="
M499.764862,87.040924 
	C499.514191,85.964943 499.548828,84.760773 499.824890,83.282547 
	C500.060883,84.309898 500.055511,85.611320 499.764862,87.040924 
z"/>
<path fill="#B2E2C3" opacity="1.000000" stroke="none" 
	d="
M465.240112,157.959412 
	C465.510406,159.036560 465.493835,160.240829 465.242432,161.724060 
	C464.989502,160.697525 464.971375,159.392029 465.240112,157.959412 
z"/>
<path fill="#A2A3A3" opacity="1.000000" stroke="none" 
	d="
M607.884827,186.271912 
	C608.132874,186.970154 608.144531,187.893295 607.907471,188.913208 
	C607.655334,188.172272 607.651917,187.334549 607.884827,186.271912 
z"/>
<path fill="#9E9FA1" opacity="1.000000" stroke="none" 
	d="
M811.826050,122.252541 
	C812.059692,122.960579 812.065308,123.899757 811.801758,124.925026 
	C811.554504,124.168633 811.576294,123.326164 811.826050,122.252541 
z"/>
<path fill="#B2E2C3" opacity="1.000000" stroke="none" 
	d="
M493.840393,130.061157 
	C493.560913,129.290665 493.542114,128.396194 493.761414,127.251663 
	C494.033356,127.980125 494.067200,128.958649 493.840393,130.061157 
z"/>
<path fill="#B2E2C3" opacity="1.000000" stroke="none" 
	d="
M500.417175,79.780212 
	C499.633392,79.726677 499.063660,79.498543 498.237946,79.098633 
	C498.865082,79.153114 499.748138,79.379364 500.417175,79.780212 
z"/>
<path fill="#9E9FA1" opacity="1.000000" stroke="none" 
	d="
M800.701538,129.219299 
	C800.728149,130.055420 800.441345,130.930832 799.891113,131.906479 
	C799.881165,131.090683 800.134644,130.174652 800.701538,129.219299 
z"/>
<path fill="#9E9FA1" opacity="1.000000" stroke="none" 
	d="
M808.844482,142.211578 
	C809.067261,142.635468 809.078674,143.249619 808.865479,143.937790 
	C808.638245,143.475159 808.635620,142.938507 808.844482,142.211578 
z"/>
<path fill="#9E9FA1" opacity="1.000000" stroke="none" 
	d="
M807.814697,149.202850 
	C808.042603,149.627136 808.062683,150.245621 807.854736,150.938095 
	C807.620056,150.473740 807.613464,149.935410 807.814697,149.202850 
z"/>
<path fill="#9E9FA1" opacity="1.000000" stroke="none" 
	d="
M806.890137,155.227112 
	C807.113586,155.643478 807.125427,156.248566 806.922852,156.931366 
	C806.698425,156.477997 806.688477,155.946915 806.890137,155.227112 
z"/>
<path fill="#B2E2C3" opacity="1.000000" stroke="none" 
	d="
M523.594055,161.149902 
	C523.025146,160.811996 522.589355,160.154770 522.195740,159.194977 
	C522.734314,159.538467 523.230774,160.184509 523.594055,161.149902 
z"/>
<path fill="#B2E2C3" opacity="1.000000" stroke="none" 
	d="
M541.519409,197.178070 
	C540.929565,196.852844 540.482117,196.204681 540.065308,195.253189 
	C540.617920,195.584961 541.139832,196.220062 541.519409,197.178070 
z"/>
<path fill="#9E9FA1" opacity="1.000000" stroke="none" 
	d="
M805.827515,162.207947 
	C806.051147,162.629333 806.069336,163.246155 805.861023,163.937424 
	C805.630371,163.475708 805.626221,162.939529 805.827515,162.207947 
z"/>
<path fill="#A2A3A3" opacity="1.000000" stroke="none" 
	d="
M606.852295,194.215210 
	C607.091919,194.634018 607.116760,195.242661 606.927124,195.931671 
	C606.687622,195.476364 606.662598,194.940704 606.852295,194.215210 
z"/>
<path fill="#B2E2C3" opacity="1.000000" stroke="none" 
	d="
M467.083435,145.913101 
	C467.348846,146.389999 467.391632,146.974854 467.217438,147.779861 
	C466.953918,147.340363 466.907349,146.680710 467.083435,145.913101 
z"/>
<path fill="#B2E2C3" opacity="1.000000" stroke="none" 
	d="
M539.523071,193.181351 
	C538.940002,192.848343 538.501587,192.193710 538.097412,191.236053 
	C538.643677,191.575241 539.155640,192.217484 539.523071,193.181351 
z"/>
<path fill="#9E9FA1" opacity="1.000000" stroke="none" 
	d="
M803.818665,176.204926 
	C804.037964,176.628326 804.053040,177.247925 803.838013,177.940155 
	C803.610046,177.475571 803.612244,176.938370 803.818665,176.204926 
z"/>
<path fill="#A2A3A3" opacity="1.000000" stroke="none" 
	d="
M610.912964,165.234558 
	C611.142029,165.646378 611.156799,166.245636 610.965149,166.927399 
	C610.738708,166.480621 610.718750,165.951309 610.912964,165.234558 
z"/>
<path fill="#9E9FA1" opacity="1.000000" stroke="none" 
	d="
M804.850952,169.215149 
	C805.073059,169.634949 805.087524,170.247559 804.879272,170.935669 
	C804.652100,170.476776 804.647644,169.942383 804.850952,169.215149 
z"/>
<path fill="#A2A3A3" opacity="1.000000" stroke="none" 
	d="
M617.109131,185.821594 
	C616.822388,185.389313 616.726135,184.808441 616.868042,184.093704 
	C617.170654,184.530899 617.235168,185.101929 617.109131,185.821594 
z"/>
<path fill="#A2A3A3" opacity="1.000000" stroke="none" 
	d="
M608.864746,179.221420 
	C609.099915,179.633713 609.127502,180.240524 608.943176,180.929260 
	C608.706543,180.479446 608.681885,179.947693 608.864746,179.221420 
z"/>
<path fill="#B2E2C3" opacity="1.000000" stroke="none" 
	d="
M531.511841,177.186493 
	C530.927307,176.852249 530.490112,176.197662 530.090698,175.240662 
	C530.638794,175.580872 531.148926,176.223495 531.511841,177.186493 
z"/>
<path fill="#9E9FA1" opacity="1.000000" stroke="none" 
	d="
M812.888611,115.224457 
	C813.107483,115.647583 813.109070,116.254684 812.892212,116.936401 
	C812.672974,116.476830 812.672119,115.942627 812.888611,115.224457 
z"/>
<path fill="#B2E2C3" opacity="1.000000" stroke="none" 
	d="
M511.265747,190.002563 
	C511.691742,190.165924 512.023376,190.662521 512.346252,191.467926 
	C511.948761,191.296432 511.560089,190.816116 511.265747,190.002563 
z"/>
<path fill="#9E9FA1" opacity="1.000000" stroke="none" 
	d="
M821.941895,107.700012 
	C821.697021,107.767067 821.429749,107.539803 821.067505,107.059563 
	C821.288147,107.006294 821.603821,107.205994 821.941895,107.700012 
z"/>
<path fill="#A2A3A3" opacity="1.000000" stroke="none" 
	d="
M614.272888,200.011612 
	C614.190796,199.781815 614.389954,199.498749 614.827759,199.102783 
	C614.895630,199.312698 614.724915,199.635529 614.272888,200.011612 
z"/>
<path fill="#FCFCFC" opacity="1.000000" stroke="none" 
	d="
M701.297119,194.218063 
	C693.525757,193.218170 688.777405,189.374573 687.965454,183.772705 
	C686.953064,176.787170 689.816162,170.813828 696.754395,168.175537 
	C701.610107,166.329132 707.007629,165.633820 712.231934,165.110184 
	C717.168762,164.615341 722.195435,165.003601 727.182251,165.042709 
	C727.643860,165.046326 728.103210,165.333679 728.533997,165.479279 
	C729.828491,182.844131 718.199646,195.808899 701.297119,194.218063 
z"/>
<path fill="#14428E" opacity="1.000000" stroke="none" 
	d="
M262.955261,221.065079 
	C242.908646,220.445786 225.341873,213.361755 210.568130,199.962341 
	C201.250748,191.511734 195.494766,180.372055 189.791580,169.310776 
	C184.811661,159.652237 178.770538,150.796829 169.893494,144.199707 
	C169.575317,143.963242 169.525223,143.366058 168.698257,141.338898 
	C173.057877,142.322098 176.584702,142.620483 179.699387,143.912430 
	C189.329254,147.906784 196.297928,155.285645 203.052338,162.943619 
	C212.254791,173.377151 220.839600,184.563034 231.204865,193.708527 
	C242.988342,204.105316 257.494019,210.229477 273.693390,213.163208 
	C276.362549,214.987839 278.614441,216.294296 281.088806,217.729813 
	C278.700104,219.412033 276.840485,220.721649 274.980865,222.031281 
	C272.293488,222.031815 269.606079,222.032349 266.418610,221.696350 
	C264.930756,221.261566 263.943024,221.163315 262.955261,221.065079 
z"/>
<path fill="#153F85" opacity="1.000000" stroke="none" 
	d="
M275.437042,222.036865 
	C276.840485,220.721649 278.700104,219.412033 281.088806,217.729813 
	C278.614441,216.294296 276.362549,214.987839 274.047852,213.324066 
	C287.113892,212.966721 300.242798,212.966721 313.371674,212.966721 
	C313.456543,213.560394 313.541443,214.154083 313.626312,214.747757 
	C301.632416,219.767548 288.907227,221.545258 275.437042,222.036865 
z"/>
<path fill="#153F85" opacity="1.000000" stroke="none" 
	d="
M263.175537,221.320129 
	C263.943024,221.163315 264.930756,221.261566 265.970825,221.688843 
	C265.147369,221.870300 264.271606,221.722748 263.175537,221.320129 
z"/>
<path fill="#90BA37" opacity="1.000000" stroke="none" 
	d="
M600.230896,85.052544 
	C592.048035,97.364845 580.227844,104.105911 566.053040,107.000046 
	C561.721985,107.884346 557.232849,107.994720 551.191895,108.630440 
	C558.426331,97.804382 564.840149,88.348526 574.319580,80.517105 
	C577.341553,78.128418 579.813293,76.074005 582.600830,74.016479 
	C583.637634,73.686195 584.358643,73.359032 585.308350,73.021126 
	C585.537170,73.010376 585.995117,72.998795 586.229126,72.864357 
	C587.673706,71.970596 588.884216,71.211281 590.538635,70.173500 
	C590.538635,72.669357 590.144653,74.377785 590.640808,75.768661 
	C591.228699,77.416679 593.224976,78.689171 593.481445,80.303818 
	C594.147034,84.493988 596.770935,85.202034 600.230896,85.052544 
z"/>
<path fill="#99C13D" opacity="1.000000" stroke="none" 
	d="
M600.517700,84.888390 
	C596.770935,85.202034 594.147034,84.493988 593.481445,80.303818 
	C593.224976,78.689171 591.228699,77.416679 590.640808,75.768661 
	C590.144653,74.377785 590.538635,72.669357 590.538635,70.173500 
	C588.884216,71.211281 587.673706,71.970596 586.228210,72.560242 
	C585.888916,71.870949 585.784668,71.351334 585.680420,70.831711 
	C585.480164,70.847794 585.279846,70.863869 585.079590,70.879951 
	C585.079590,71.597260 585.079590,72.314568 585.079590,73.031876 
	C584.358643,73.359032 583.637634,73.686195 582.520996,73.749031 
	C582.089233,73.302292 582.053101,73.119873 581.924072,72.561630 
	C580.834290,71.790657 579.810974,71.450554 578.846375,70.987946 
	C577.247803,70.221275 574.296143,69.212280 574.368774,68.593842 
	C574.594666,66.672417 575.856628,64.812904 576.945740,63.072792 
	C577.737671,61.807568 578.892822,60.769653 579.886047,59.630394 
	C580.653442,59.316441 581.420898,59.002476 582.717773,58.999443 
	C585.168030,58.518509 587.088745,57.726646 589.009521,56.934792 
	C589.694580,56.800766 590.379639,56.666737 591.607178,56.866089 
	C593.104492,56.761440 594.059326,56.323414 595.014099,55.885384 
	C600.694153,55.288193 606.374207,54.691006 612.499939,54.073372 
	C612.945618,54.052925 613.000000,54.001007 612.973389,54.027718 
	C611.483398,65.300735 607.440125,75.525650 600.517700,84.888390 
M583.586243,71.516350 
	C583.586243,71.516350 583.477051,71.581345 583.586243,71.516350 
z"/>
<path fill="#95BE3C" opacity="1.000000" stroke="none" 
	d="
M579.515869,59.693115 
	C578.892822,60.769653 577.737671,61.807568 576.945740,63.072792 
	C575.856628,64.812904 574.594666,66.672417 574.368774,68.593842 
	C574.296143,69.212280 577.247803,70.221275 578.846375,70.987946 
	C579.810974,71.450554 580.834290,71.790657 581.549805,72.578506 
	C578.776367,74.394432 576.284302,75.817680 573.792175,77.240936 
	C565.136169,84.565338 556.480164,91.889748 548.471558,98.666359 
	C547.634644,83.461197 560.696289,66.240776 579.515869,59.693115 
z"/>
<path fill="#E2F1B3" opacity="1.000000" stroke="none" 
	d="
M573.862976,77.761246 
	C576.284302,75.817680 578.776367,74.394432 581.642700,72.954315 
	C582.053101,73.119873 582.089233,73.302292 582.205200,73.752151 
	C579.813293,76.074005 577.341553,78.128418 574.533936,80.273178 
	C574.109985,79.669525 574.021912,78.975533 573.862976,77.761246 
z"/>
<path fill="#95BE3C" opacity="1.000000" stroke="none" 
	d="
M588.642090,56.927231 
	C587.088745,57.726646 585.168030,58.518509 583.036499,58.998940 
	C584.642090,58.098232 586.458313,57.508953 588.642090,56.927231 
z"/>
<path fill="#95BE3C" opacity="1.000000" stroke="none" 
	d="
M594.672913,55.847755 
	C594.059326,56.323414 593.104492,56.761440 591.957275,56.879227 
	C592.620483,56.309372 593.476135,56.059750 594.672913,55.847755 
z"/>
<path fill="#168D3E" opacity="1.000000" stroke="none" 
	d="
M502.266449,168.065369 
	C501.169037,167.688629 500.427216,167.349457 499.369568,167.059906 
	C494.616791,166.286926 493.793610,170.003876 492.138184,173.013458 
	C490.401520,175.195023 488.635284,177.001465 486.603394,178.971863 
	C485.575317,179.780136 484.323669,180.305161 484.132507,181.088791 
	C483.131470,185.193619 482.399170,189.363983 480.851929,193.757080 
	C477.401733,193.271637 473.454102,195.922226 472.108917,191.395767 
	C470.203674,184.984772 470.304413,184.954834 463.994568,187.002228 
	C464.986786,179.810333 465.982300,172.618896 466.970398,165.426437 
	C468.341156,155.448364 469.621826,145.457001 471.095032,135.494110 
	C472.977905,122.760918 474.912750,110.033401 477.041351,97.339691 
	C477.749420,93.117126 478.864563,88.910591 480.343689,84.899590 
	C480.822449,83.601410 482.968170,82.357727 484.505096,82.131004 
	C487.374573,81.707703 490.431885,81.676765 493.254608,82.251175 
	C494.384583,82.481110 495.925018,84.781700 495.864563,86.073593 
	C495.587524,91.994240 494.884583,97.900230 494.193909,103.795006 
	C493.196320,112.309143 491.935272,120.794441 491.057709,129.319962 
	C490.426331,135.453766 490.237335,141.633087 490.153198,147.939255 
	C491.946045,147.221497 493.698883,146.622040 494.885529,145.449570 
	C504.028748,136.415176 513.062195,127.269737 522.420044,118.017624 
	C528.870667,117.914070 535.031067,117.991325 541.191223,117.968140 
	C543.415649,117.959778 545.293213,118.132111 544.945679,121.506927 
	C542.314880,124.494957 539.711975,127.068733 537.141174,130.018433 
	C536.077087,131.551910 534.980957,132.709473 533.625916,134.014755 
	C531.887817,134.640793 530.038330,134.714478 528.994995,135.669159 
	C524.998169,139.326294 521.058044,143.094788 517.561523,147.216019 
	C516.633362,148.310074 517.365112,150.812439 517.628052,152.862305 
	C523.695129,165.007751 529.468933,176.959076 535.567505,189.005310 
	C536.517944,191.772720 537.143677,194.445221 537.951477,197.895523 
	C531.484192,197.895523 525.346130,198.073120 519.236938,197.732285 
	C518.133423,197.670700 516.922058,195.608093 516.150391,194.248062 
	C513.504333,189.584656 511.031738,184.822845 508.119019,180.070404 
	C507.745026,180.042236 507.664795,179.819656 507.697296,179.368332 
	C507.422150,178.603958 507.114471,178.290924 506.806824,177.977875 
	C506.806824,177.977875 506.611115,177.819519 506.610016,177.696075 
	C505.279938,174.416077 503.950989,171.259521 502.266449,168.065369 
z"/>
<path fill="#17903D" opacity="1.000000" stroke="none" 
	d="
M463.941406,187.408997 
	C470.304413,184.954834 470.203674,184.984772 472.108917,191.395767 
	C473.454102,195.922226 477.401733,193.271637 480.574951,194.006195 
	C481.364838,196.928284 480.260345,198.151550 477.143890,198.082840 
	C473.554260,198.003708 469.944946,198.718658 466.359650,198.603958 
	C465.222229,198.567581 463.255066,197.037308 463.190796,196.087570 
	C463.006073,193.358536 463.600189,190.576782 463.941406,187.408997 
z"/>
<path fill="#2A914C" opacity="1.000000" stroke="none" 
	d="
M506.856720,178.303726 
	C507.114471,178.290924 507.422150,178.603958 507.743225,179.259308 
	C507.473297,179.277588 507.189941,178.953583 506.856720,178.303726 
z"/>
<path fill="#95BE3C" opacity="1.000000" stroke="none" 
	d="
M585.308350,73.021126 
	C585.079590,72.314568 585.079590,71.597260 585.079590,70.879951 
	C585.279846,70.863869 585.480164,70.847794 585.680420,70.831711 
	C585.784668,71.351334 585.888916,71.870949 585.994141,72.694679 
	C585.995117,72.998795 585.537170,73.010376 585.308350,73.021126 
z"/>
<path fill="#95BE3C" opacity="1.000000" stroke="none" 
	d="
M583.531616,71.548843 
	C583.477051,71.581345 583.586243,71.516350 583.531616,71.548843 
z"/>
</svg>