<?xml version="1.0" encoding="UTF-8"?>
<svg version="1.1" xmlns="http://www.w3.org/2000/svg" width="1024" height="1024">
<path d="M0 0 C337.92 0 675.84 0 1024 0 C1024 337.92 1024 675.84 1024 1024 C686.08 1024 348.16 1024 0 1024 C0 686.08 0 348.16 0 0 Z " fill="#FEFEFE" transform="translate(0,0)"/>
<path d="M0 0 C11.91283022 9.26553462 20.56704225 20.09941247 23.8125 35.1875 C25.22773214 54.53030725 23.27192331 72.03392678 12.25390625 88.51953125 C11.54041016 89.34517578 11.54041016 89.34517578 10.8125 90.1875 C10.1525 90.1875 9.4925 90.1875 8.8125 90.1875 C7.53149414 88.76635742 7.53149414 88.76635742 6.09765625 86.79296875 C5.57623047 86.08462891 5.05480469 85.37628906 4.51757812 84.64648438 C3.70450195 83.52209961 3.70450195 83.52209961 2.875 82.375 C1.80558166 80.9085521 0.73403898 79.44365052 -0.33984375 77.98046875 C-0.81413818 77.3258667 -1.28843262 76.67126465 -1.77709961 75.99682617 C-3.14867811 74.14536661 -3.14867811 74.14536661 -4.87231445 72.58520508 C-5.30632568 72.1239624 -5.74033691 71.66271973 -6.1875 71.1875 C-6.078125 69.03125 -6.078125 69.03125 -5.4375 66.6875 C-5.23640625 65.9140625 -5.0353125 65.140625 -4.828125 64.34375 C-4.31444788 62.61478799 -3.75786601 60.89859802 -3.1875 59.1875 C-1.98268111 47.72410627 -1.97486804 36.70694389 -9.1875 27.1875 C-11.62206905 24.39565666 -14.11133674 22.24400393 -17.1875 20.1875 C-18.11755859 19.53974609 -18.11755859 19.53974609 -19.06640625 18.87890625 C-27.16847273 14.29671993 -38.34172724 15.05144892 -47.22265625 16.77734375 C-57.20809208 20.21132089 -64.50719311 28.21907921 -69.0703125 37.5 C-73.6524105 48.52266932 -73.44921639 60.61724115 -69.22265625 71.72265625 C-65.64202428 79.71578418 -60.53588005 84.85353393 -52.625 88.625 C-43.91061114 91.78160525 -34.16328904 90.60472985 -25.1875 89.1875 C-32.9485853 72.35564626 -41.38560783 60.79378511 -59.1875 54.1875 C-53.34482421 50.74252607 -46.49006292 51.50066562 -40.05078125 52.83984375 C-32.8765225 54.98017959 -27.76125354 58.27393863 -22.1875 63.1875 C-21.59582031 63.64898438 -21.00414062 64.11046875 -20.39453125 64.5859375 C-14.79470643 69.01966608 -10.58408958 74.60223109 -6.1875 80.1875 C7.72434965 97.83765858 21.9537887 111.81665566 43.4375 119.5625 C44.09306885 119.8011377 44.7486377 120.03977539 45.42407227 120.28564453 C55.95840367 123.86041581 66.6966911 124.57586375 77.75 124.5625 C79.00748047 124.56233887 80.26496094 124.56217773 81.56054688 124.56201172 C93.25026072 124.42086749 105.7604212 123.53523928 116.6875 118.9921875 C118.8125 118.1875 118.8125 118.1875 121.8125 119.1875 C112.35789847 124.07864816 102.96845158 128.90346963 92.8125 132.1875 C91.62011719 132.58066406 90.42773438 132.97382812 89.19921875 133.37890625 C78.85152716 136.38867926 68.38457717 136.61227197 57.6875 136.6875 C56.61624374 136.70316513 56.61624374 136.70316513 55.52334595 136.71914673 C31.23054371 136.99616349 8.65291205 128.77490652 -9.1875 112.1875 C-9.5175 111.5275 -9.8475 110.8675 -10.1875 110.1875 C-14.21463678 110.83703819 -17.89230816 112.08015751 -21.7109375 113.46875 C-38.20381145 118.25532541 -57.32125541 115.92648079 -72.30078125 107.9765625 C-86.68659701 99.06086071 -94.66345016 85.47540872 -98.5 69.25 C-101.73893772 50.21738503 -97.18374616 31.90002605 -86.1875 16.1875 C-76.38546941 3.08437233 -63.66379098 -3.55366809 -48.1875 -7.8125 C-47.54321045 -7.99208252 -46.8989209 -8.17166504 -46.23510742 -8.35668945 C-30.72142572 -11.81013451 -13.49275715 -7.67235211 0 0 Z " fill="#1A8F3D" transform="translate(254.1875,468.8125)"/>
<path d="M0 0 C7.59 0 15.18 0 23 0 C22.38834498 14.08529507 20.46819786 27.86930698 18.4375 41.8125 C17.94299517 45.24034489 17.45028545 48.66843494 16.95973206 52.09684753 C16.65631789 54.21401634 16.35037711 56.33082498 16.04161072 58.44721985 C15.83623436 59.87097176 15.83623436 59.87097176 15.62670898 61.32348633 C15.44470192 62.5734716 15.44470192 62.5734716 15.25901794 63.84870911 C14.94023107 66.13527685 14.94023107 66.13527685 15 69 C16.23411621 67.5459375 16.23411621 67.5459375 17.49316406 66.0625 C43.21082028 36.18119386 43.21082028 36.18119386 55.359375 34.875 C62.03708949 34.6612597 68.51557579 35.40345616 75 37 C69.86374027 43.26569904 64.19176657 48.96093732 58.45825195 54.67211914 C56.80236949 56.32259745 55.1519552 57.97841081 53.50195312 59.63476562 C52.44563336 60.69042532 51.38900383 61.74577517 50.33203125 62.80078125 C49.84136673 63.29347 49.35070221 63.78615875 48.84516907 64.29377747 C46.64778316 66.47613531 44.58955714 68.27362857 42 70 C43.48178458 73.84179541 45.17698031 77.5313992 46.9765625 81.234375 C47.26323792 81.82581802 47.54991333 82.41726105 47.84527588 83.02662659 C48.45586576 84.28612535 49.0671709 85.54527758 49.67913818 86.80410767 C51.2638081 90.06420019 52.84297963 93.32695151 54.421875 96.58984375 C54.88694962 97.55068123 54.88694962 97.55068123 55.36141968 98.53092957 C58.96922746 105.99226757 62.49139655 113.49158862 66 121 C57.42 121 48.84 121 40 121 C37.86013007 116.62345651 35.72267837 112.24590005 33.59130859 107.86523438 C32.86517898 106.3746381 32.13764474 104.88472523 31.40869141 103.39550781 C30.36252732 101.25763236 29.32140168 99.11736833 28.28125 96.9765625 C27.95314331 96.30879791 27.62503662 95.64103333 27.2869873 94.95303345 C25 90.22774341 25 90.22774341 25 88 C23.80675343 88.8461203 22.62080293 89.70252842 21.4375 90.5625 C20.77621094 91.03816406 20.11492188 91.51382813 19.43359375 92.00390625 C18.63050781 92.66261719 17.82742188 93.32132813 17 94 C16.41549072 94.465271 15.83098145 94.93054199 15.22875977 95.40991211 C9.78608033 100.18150868 8.73004347 104.39210845 8.0625 111.4375 C7.711875 114.593125 7.36125 117.74875 7 121 C-0.59 121 -8.18 121 -16 121 C-16 111.99969431 -16 111.99969431 -15.4050293 107.81933594 C-15.20933601 106.41551666 -15.20933601 106.41551666 -15.00968933 104.9833374 C-14.86598404 103.99367981 -14.72227875 103.00402222 -14.57421875 101.984375 C-14.42596146 100.93332581 -14.27770416 99.88227661 -14.12495422 98.79937744 C-13.65096408 95.44882852 -13.16927177 92.09943785 -12.6875 88.75 C-12.3751627 86.54694418 -12.06330964 84.34381965 -11.75195312 82.140625 C-10.25091583 71.55286046 -8.70376364 60.97298293 -7.10360718 50.39978027 C-5.59142716 40.36144654 -4.20608186 30.30534759 -2.8125 20.25 C-2.53720743 18.26951762 -2.26181722 16.2890488 -1.98632812 14.30859375 C-1.32292191 9.53924093 -0.66149573 4.7696197 0 0 Z " fill="#188D3F" transform="translate(515,461)"/>
<path d="M0 0 C7.92 0 15.84 0 24 0 C23.37799854 6.22001457 22.71768563 12.36207315 21.80859375 18.53515625 C21.58373845 20.10217827 21.35913664 21.66923669 21.13476562 23.23632812 C20.78637046 25.6544705 20.43606384 28.0722854 20.08129883 30.48950195 C19.73470342 32.85810381 19.39611064 35.22774597 19.05859375 37.59765625 C18.95236191 38.30729019 18.84613007 39.01692413 18.73667908 39.74806213 C17.15571561 50.83344379 17.15571561 50.83344379 21 61 C25.06624248 64.82919696 28.73448801 64.42198685 34.078125 64.3046875 C37.57121518 63.94043478 40.04146765 62.86854675 43 61 C43.66 61 44.32 61 45 61 C48.63692324 52.60710022 50.52452906 43.97521964 51.82421875 34.9609375 C51.97534622 33.95406891 52.12647369 32.94720032 52.28218079 31.90982056 C52.75748919 28.73252429 53.22266233 25.55384318 53.6875 22.375 C54.01039531 20.20432696 54.33395683 18.0337529 54.65820312 15.86328125 C55.44774638 10.57677425 56.22352952 5.28850854 57 0 C64.59 0 72.18 0 80 0 C79.3972933 10.56171744 78.18850616 20.91828597 76.63574219 31.37695312 C76.25084147 33.99427799 75.88699574 36.61401182 75.5234375 39.234375 C73.41085907 53.88315213 70.76366911 68.62845327 58.97265625 78.73828125 C49.48386112 85.65326215 39.89008325 87.36232564 28.375 87.5 C27.40933105 87.51853027 26.44366211 87.53706055 25.44873047 87.55615234 C15.58632393 87.47036303 7.86319277 84.57804921 0.6875 77.79296875 C-6.56495005 70.08724057 -7.4930928 62.30865793 -7.2890625 52.11767578 C-6.86123838 42.14549783 -5.06664956 32.27975429 -3.5 22.4375 C-3.1615928 20.25083142 -2.82434543 18.06398302 -2.48828125 15.87695312 C-1.67429186 10.58201232 -0.83674978 5.29158852 0 0 Z " fill="#1A8D3E" transform="translate(293,497)"/>
<path d="M0 0 C8.42203052 6.26609157 8.42203052 6.26609157 10 11 C8.29639246 12.588417 6.58688171 14.17050381 4.875 15.75 C3.44800781 17.07257812 3.44800781 17.07257812 1.9921875 18.421875 C-0.91029774 20.92271085 -3.77508474 22.95213096 -7 25 C-8.299375 23.824375 -8.299375 23.824375 -9.625 22.625 C-15.04344216 18.18715758 -20.39151683 17.53311504 -27.25390625 17.69140625 C-33.11440013 18.34998238 -37.26092931 20.9244745 -41.3125 25.125 C-45.68651617 30.72995514 -47.37105939 37.06882086 -46.9375 44.125 C-45.98688301 50.55683411 -44.0776034 55.3463973 -38.9375 59.4375 C-33.60843001 62.2721117 -28.94234817 62.76999441 -23 62 C-18.3031713 60.22711255 -14.16585842 57.77723895 -10 55 C-9.15695312 55.78246094 -8.31390625 56.56492187 -7.4453125 57.37109375 C-6.33865166 58.39334825 -5.23187479 59.41547716 -4.125 60.4375 C-3.29162109 61.2119043 -3.29162109 61.2119043 -2.44140625 62.00195312 C0.54749315 64.82104736 0.54749315 64.82104736 4 67 C0.87719224 74.19046505 -5.78938896 78.82292006 -12.75 82 C-22.96017927 85.54770658 -36.52849517 86.16607456 -46.75 82.375 C-48.19322108 81.63284539 -49.61238017 80.8415413 -51 80 C-51.76054687 79.59910156 -52.52109375 79.19820312 -53.3046875 78.78515625 C-61.88550462 73.80134833 -67.50491668 65.80263839 -70.42871094 56.41577148 C-71.39348614 52.33609171 -71.48851608 48.3647455 -71.4375 44.1875 C-71.42992676 43.31311279 -71.42235352 42.43872559 -71.41455078 41.5378418 C-71.047862 27.06969429 -64.9732415 16.1173299 -54.70703125 6.1484375 C-40.85097574 -4.84843195 -15.74676168 -9.93807861 0 0 Z " fill="#188E3F" transform="translate(490,500)"/>
<path d="M0 0 C6.08093793 6.36377226 6.97409028 11.45687955 6.86083984 20.14306641 C6.56528139 26.39974757 5.70704059 32.5548306 4.8125 38.75 C4.63847656 40.00490234 4.46445312 41.25980469 4.28515625 42.55273438 C3.76232441 46.30744153 3.22668976 50.06010981 2.6875 53.8125 C2.49430127 55.16550381 2.30126866 56.51853135 2.10839844 57.87158203 C1.63577463 61.18536679 1.16208954 64.4989963 0.6875 67.8125 C-2.2825 67.8125 -5.2525 67.8125 -8.3125 67.8125 C-8.3125 64.8425 -8.3125 61.8725 -8.3125 58.8125 C-8.993125 59.8953125 -8.993125 59.8953125 -9.6875 61 C-14.81562159 66.49441599 -22.03923054 69.49147853 -29.484375 70.05078125 C-42.6599186 70.32407309 -42.6599186 70.32407309 -48.3125 65.8125 C-53.53436594 60.76278349 -55.46305469 56.98853264 -55.6875 49.625 C-55.61544291 41.52758482 -53.13234235 37.69792007 -47.625 32.0625 C-38.70303981 25.4013648 -28.8549781 25.16785176 -18.1875 25.0625 C-16.73954862 25.03428052 -15.29162961 25.00434495 -13.84375 24.97265625 C-10.33348508 24.89950756 -6.82335404 24.84950337 -3.3125 24.8125 C-3.23089252 22.91739301 -3.17303541 21.02125496 -3.125 19.125 C-3.09019531 18.06925781 -3.05539062 17.01351562 -3.01953125 15.92578125 C-3.35112303 12.40206598 -4.20825573 10.62797698 -6.3125 7.8125 C-10.79147474 4.85028371 -14.8671633 4.29991486 -20.125 4.375 C-20.82842529 4.37822266 -21.53185059 4.38144531 -22.2565918 4.38476562 C-27.33839158 4.52063949 -31.21100592 5.44662516 -35.61328125 7.9375 C-37.3125 8.8125 -37.3125 8.8125 -40.3125 8.8125 C-42.0625 6.5 -42.0625 6.5 -43.3125 3.8125 C-42.3125 0.8125 -42.3125 0.8125 -40.74609375 -0.28515625 C-27.72968254 -6.57684621 -12.52320566 -8.27004147 0 0 Z " fill="#989899" transform="translate(772.3125,514.1875)"/>
<path d="M0 0 C4.52226909 2.13586393 8.08921142 5.04286642 11.8203125 8.33203125 C12.41199219 8.79351563 13.00367188 9.255 13.61328125 9.73046875 C19.21310607 14.16419733 23.42372292 19.74676234 27.8203125 25.33203125 C41.73216215 42.98218983 55.9616012 56.96118691 77.4453125 64.70703125 C78.10088135 64.94566895 78.7564502 65.18430664 79.43188477 65.43017578 C89.96621617 69.00494706 100.7045036 69.720395 111.7578125 69.70703125 C113.01529297 69.70687012 114.27277344 69.70670898 115.56835938 69.70654297 C127.25807322 69.56539874 139.7682337 68.67977053 150.6953125 64.13671875 C152.8203125 63.33203125 152.8203125 63.33203125 155.8203125 64.33203125 C146.36571097 69.22317941 136.97626408 74.04800088 126.8203125 77.33203125 C125.62792969 77.72519531 124.43554688 78.11835937 123.20703125 78.5234375 C112.85933966 81.53321051 102.39238967 81.75680322 91.6953125 81.83203125 C90.62405624 81.84769638 90.62405624 81.84769638 89.53115845 81.86367798 C66.40921159 82.12734319 43.32580687 74.75828257 26.25488281 58.7578125 C18.21923971 50.7714007 13.01187493 41.34852061 7.90234375 31.3515625 C0.75236505 17.40142116 -7.65698032 5.57723916 -22.7421875 0.01953125 C-23.5465625 -0.20734375 -24.3509375 -0.43421875 -25.1796875 -0.66796875 C-17.5482152 -5.16765761 -7.85293372 -2.90127969 0 0 Z " fill="#15428B" transform="translate(220.1796875,523.66796875)"/>
<path d="M0 0 C4.18228749 2.50576707 7.10183243 6.30320676 9.5 10.5 C9.5 11.16 9.5 11.82 9.5 12.5 C10.16 12.5 10.82 12.5 11.5 12.5 C11.88285156 11.62021484 11.88285156 11.62021484 12.2734375 10.72265625 C15.32007728 5.20183449 21.1817396 0.82664529 27.16796875 -1.0625 C34.49296134 -2.43670296 42.22308692 -2.74820716 48.78515625 1.1640625 C53.44486607 4.79417812 56.653321 8.86720743 58.5 14.5 C60.72660005 32.92005492 55.33374038 53.33190562 52.5 71.5 C49.2 71.5 45.9 71.5 42.5 71.5 C43.40237524 62.30638878 44.37603745 53.144034 45.71533203 44.00244141 C48.92406607 28.01505057 48.92406607 28.01505057 45.8125 12.75 C41.87625337 8.92013841 38.01619777 8.19501556 32.625 8.125 C27.23816992 8.24382713 23.53247182 8.82941668 19.5 12.5 C11.7484011 20.63734198 10.1530447 30.0952027 9 40.9375 C7.82060223 51.19230407 6.30898804 61.33887567 4.5 71.5 C1.53 71.5 -1.44 71.5 -4.5 71.5 C-4.18795917 60.89061177 -2.85636641 50.70456237 -0.87207031 40.27929688 C0.83952829 30.88905865 2.4302635 21.08231053 -2.5 12.5 C-4.51939864 9.9757517 -5.34500596 9.55166468 -8.5 8.5 C-14.74818035 7.82475205 -20.70262618 7.25406299 -26 11.0625 C-34.01220529 18.24643934 -36.50960179 25.97904451 -37.75390625 36.44140625 C-37.85968491 37.28670395 -37.96546356 38.13200165 -38.07444763 39.00291443 C-38.40957237 41.68876475 -38.73642055 44.37553789 -39.0625 47.0625 C-39.3936427 49.75282372 -39.72653374 52.44291756 -40.06126404 55.13279724 C-40.26848752 56.80198304 -40.47339981 58.47145787 -40.67567444 60.14125061 C-41.14592813 63.96601267 -41.66912963 67.73253839 -42.5 71.5 C-45.47 71.5 -48.44 71.5 -51.5 71.5 C-51.01875759 57.26406392 -49.08078267 43.32906199 -47 29.25 C-46.67515772 27.00920489 -46.35093508 24.76831985 -46.02734375 22.52734375 C-45.43520559 18.44966849 -44.84274952 14.37205442 -44.24023438 10.29589844 C-44.12111694 9.48779724 -44.00199951 8.67969604 -43.87927246 7.84710693 C-43.48118183 5.38354477 -43.00398062 2.943906 -42.5 0.5 C-39.86 0.5 -37.22 0.5 -34.5 0.5 C-34.5 3.8 -34.5 7.1 -34.5 10.5 C-33.324375 8.9221875 -33.324375 8.9221875 -32.125 7.3125 C-24.15164987 -1.81049597 -11.33696541 -4.84318637 0 0 Z " fill="#99999A" transform="translate(649.5,510.5)"/>
<path d="M0 0 C1.02577148 0.00676758 1.02577148 0.00676758 2.07226562 0.01367188 C3.73571604 0.0253044 5.3991205 0.04323306 7.0625 0.0625 C7.35189911 5.50461491 6.45843678 9.84798021 4.5 14.875 C4.231875 15.57423584 3.96375 16.27347168 3.6875 16.99389648 C1.28195289 22.99737164 -1.85652454 28.03832427 -5.9375 33.0625 C-6.40800781 33.69414062 -6.87851562 34.32578125 -7.36328125 34.9765625 C-15.56354826 45.46366454 -28.55119889 51.54917335 -41.46875 53.79296875 C-45.62918208 54.24719314 -49.75991754 54.22249252 -53.9375 54.0625 C-46.33696098 37.35898982 -31.21153427 24.55091523 -15.9375 15.0625 C-30.7302646 21.87422473 -41.5686015 30.32882401 -52.9375 42.0625 C-54.26855608 43.3981067 -55.60112601 44.73221427 -56.9375 46.0625 C-57.63279001 35.40138651 -53.53688194 26.31172743 -46.9375 18.0625 C-34.29603968 5.40141008 -17.66467716 -0.15632458 0 0 Z " fill="#91BD31" transform="translate(643.9375,435.9375)"/>
<path d="M0 0 C7.59 0 15.18 0 23 0 C23 5.24729745 22.90821036 9.64884694 22.18969727 14.73217773 C22.01273819 16.00387314 21.83577911 17.27556854 21.65345764 18.58580017 C21.45785015 19.95174229 21.26216443 21.31767321 21.06640625 22.68359375 C20.86650492 24.10784309 20.66712764 25.53216607 20.46824646 26.95655823 C19.94564865 30.69046869 19.41674117 34.42345662 18.88623047 38.15625 C18.03918409 44.12518015 17.20261765 50.09559147 16.3645153 56.06578255 C16.0731283 58.1358393 15.77954647 60.20557442 15.48548889 62.2752533 C14.73148429 67.61218257 13.98354569 72.93883183 13.43334961 78.30102539 C13 82 13 82 12 84 C4.08 84 -3.84 84 -12 84 C-8.10208992 55.98447334 -4.17518903 27.97569054 0 0 Z " fill="#198C3E" transform="translate(389,498)"/>
<path d="M0 0 C2.97 0 5.94 0 9 0 C8.85758352 2.35441716 8.71115192 4.70847484 8.5625 7.0625 C8.48128906 8.37347656 8.40007813 9.68445313 8.31640625 11.03515625 C8.02356706 14.70468439 7.52059949 18.35580356 7 22 C12.61 22 18.22 22 24 22 C24 24.64 24 27.28 24 30 C17.73 30 11.46 30 5 30 C4.731875 32.475 4.46375 34.95 4.1875 37.5 C3.58099206 43.07042096 2.92739967 48.63155735 2.19921875 54.1875 C2.06298096 55.23486328 1.92674316 56.28222656 1.78637695 57.36132812 C1.51817573 59.40761593 1.24482259 61.45323708 0.96557617 63.49804688 C-0.97514352 74.16922687 -0.97514352 74.16922687 1.32104492 84.25878906 C2.96563279 86.32942026 2.96563279 86.32942026 6.13671875 86.390625 C7.30847656 86.34421875 8.48023438 86.2978125 9.6875 86.25 C10.86699219 86.21390625 12.04648437 86.1778125 13.26171875 86.140625 C14.16535156 86.09421875 15.06898438 86.0478125 16 86 C16 88.31 16 90.62 16 93 C10.53661381 96.54381807 5.31367888 96.84558199 -1 96 C-5.52427549 93.81865289 -7.81003914 91.49518283 -10 87 C-12.30274883 80.09175352 -10.83112325 72.49659888 -9.75 65.4375 C-9.61940186 64.55360596 -9.48880371 63.66971191 -9.35424805 62.7590332 C-7.71375902 51.81640966 -5.86032776 40.90699776 -4 30 C-7.3 30 -10.6 30 -14 30 C-14 27.69 -14 25.38 -14 23 C-10.04 23 -6.08 23 -2 23 C-2.04125 21.80375 -2.0825 20.6075 -2.125 19.375 C-2.14592234 12.83676721 -1.02622968 6.44142377 0 0 Z " fill="#9B9B9D" transform="translate(852,488)"/>
<path d="M0 0 C1.25361328 0.00322266 2.50722656 0.00644531 3.79882812 0.00976562 C5.76432617 0.02233398 5.76432617 0.02233398 7.76953125 0.03515625 C9.10481606 0.04017308 10.44010266 0.04473566 11.77539062 0.04882812 C15.04431598 0.0606293 18.31315116 0.07709328 21.58203125 0.09765625 C21.28836894 2.17270653 20.98749101 4.24673645 20.68359375 6.3203125 C20.43343506 8.05293335 20.43343506 8.05293335 20.17822266 9.82055664 C18.80845808 17.34977446 15.87004923 21.46522993 9.6796875 25.87109375 C2.89402542 29.83887381 -3.70457004 29.82191904 -11.41796875 29.09765625 C-15.28939016 27.85428003 -17.04208171 25.66148682 -19.29296875 22.28515625 C-20.61324813 18.54436468 -20.91074013 16.03982728 -20.41796875 12.09765625 C-16.14410208 3.54992291 -9.26948602 -0.04194338 0 0 Z " fill="#FCFDFC" transform="translate(746.41796875,546.90234375)"/>
<path d="M0 0 C-0.53771481 3.37992169 -1.14303932 6.68737889 -2 10 C-3.299375 10.20625 -4.59875 10.4125 -5.9375 10.625 C-14.60438967 12.59783988 -20.23497897 17.68461839 -25.58984375 24.55859375 C-29.53525555 31.38929286 -29.9642015 39.64111465 -31.0625 47.3125 C-31.23587891 48.48490234 -31.40925781 49.65730469 -31.58789062 50.86523438 C-32.47241733 56.93491765 -33.25306036 62.98411178 -33.75170898 69.09838867 C-34 71 -34 71 -35 73 C-37.97 73 -40.94 73 -44 73 C-43.47666137 62.47785343 -42.13011922 52.18993972 -40.52587891 41.7878418 C-40.12731393 39.20250956 -39.73678769 36.61606409 -39.34765625 34.02929688 C-37.72577767 23.32283555 -35.93462073 12.6542451 -34 2 C-31.36 2 -28.72 2 -26 2 C-26 6.29 -26 10.58 -26 15 C-25.21625 13.80375 -24.4325 12.6075 -23.625 11.375 C-17.74094253 3.46873662 -9.67154238 -0.18248193 0 0 Z " fill="#9A9A9A" transform="translate(834,509)"/>
<path d="M0 0 C3.85544798 1.99657127 5.59805092 3.39707638 8 7 C8.72380724 11.88990708 8.52637966 15.90674993 6.375 20.375 C2.3398049 24.83495247 -0.86477452 27.2195373 -6.9375 27.625 C-11.76946596 27.44252394 -14.2775636 25.8884394 -17.72265625 22.60546875 C-20.24298529 19.43771573 -20.34236111 15.99575639 -20.27734375 12.05859375 C-19.64741334 7.3829131 -16.73286663 4.66306981 -13.375 1.625 C-8.80850889 -0.57368091 -4.98354994 -0.81710803 0 0 Z " fill="#168B3D" transform="translate(411,460)"/>
<path d="M0 0 C-0.69222656 0.35449219 -1.38445313 0.70898438 -2.09765625 1.07421875 C-16.62654589 8.9799255 -27.41481061 19.66145224 -37 33 C-37.66 33.66 -38.32 34.32 -39 35 C-39.495 33.515 -39.495 33.515 -40 32 C-40.66 32.66 -41.32 33.32 -42 34 C-42.99 34 -43.98 34 -45 34 C-45.05429959 32.25034642 -45.09292823 30.50020213 -45.125 28.75 C-45.15980469 27.28820312 -45.15980469 27.28820312 -45.1953125 25.796875 C-45 23 -45 23 -43 19 C-43 22.63 -43 26.26 -43 30 C-42.43152344 29.35933594 -41.86304688 28.71867187 -41.27734375 28.05859375 C-12.50765697 -4.16921899 -12.50765697 -4.16921899 0 0 Z " fill="#F5FDD7" transform="translate(631,451)"/>
<path d="M0 0 C0.66 0 1.32 0 2 0 C0.60409757 14.8757363 -2.14158269 29.54721444 -14.02734375 39.73828125 C-23.51613888 46.65326215 -33.10991675 48.36232564 -44.625 48.5 C-46.07350342 48.52779541 -46.07350342 48.52779541 -47.55126953 48.55615234 C-56.12112074 48.48160648 -64.12303816 46.47669903 -70.5 40.4375 C-71.44359375 39.56931641 -71.44359375 39.56931641 -72.40625 38.68359375 C-74 37 -74 37 -76 34 C-74.25 34.1875 -74.25 34.1875 -72 35 C-71.4225 35.78375 -70.845 36.5675 -70.25 37.375 C-67.25747435 40.86627992 -64.31742549 41.71838946 -60 43 C-59.31550781 43.20625 -58.63101562 43.4125 -57.92578125 43.625 C-56.28945752 44.10295257 -54.6454191 44.55436566 -53 45 C-53 45.33 -53 45.66 -53 46 C-42.24179649 46.30384048 -32.34391414 46.46861792 -22 43 C-22 42.34 -22 41.68 -22 41 C-16.58823529 37 -16.58823529 37 -14 37 C-13.67 36.01 -13.34 35.02 -13 34 C-12.22011719 33.25621094 -11.44023437 32.51242187 -10.63671875 31.74609375 C-2.84162456 23.62764751 -0.96380151 10.78460655 0 0 Z " fill="#32864B" transform="translate(366,536)"/>
<path d="M0 0 C0 0.33 0 0.66 0 1 C-1.7634375 1.061875 -1.7634375 1.061875 -3.5625 1.125 C-8.65544187 1.76727153 -11.73354067 4.12897499 -15 8 C-17.14368521 12.28737042 -17.39718159 15.40926048 -16 20 C-14.62716577 22.54002013 -14.62716577 22.54002013 -12 24 C-7.56255008 24.7381926 -4.08526678 24.55417878 -0.0625 22.5 C0.618125 22.005 1.29875 21.51 2 21 C2.66 21 3.32 21 4 21 C4.90413673 17.16275828 5.10576898 13.62497726 5.0625 9.6875 C5.05347656 8.61886719 5.04445313 7.55023438 5.03515625 6.44921875 C5.02355469 5.64097656 5.01195312 4.83273437 5 4 C7.07776754 5.69197516 7.92301562 6.59704571 8.43359375 9.26953125 C8.44243167 15.0230161 8.02113871 18.55558353 4 23 C-0.27645291 26.86917168 -3.90815169 27.73940137 -9.5234375 27.52734375 C-13.66304097 26.64588244 -16.40044667 24.26732849 -19 21 C-20.24350856 17.26947433 -20.52198871 13.87447957 -20 10 C-15.47322113 0.94644227 -9.4224181 -0.67036967 0 0 Z " fill="#2F834A" transform="translate(411,460)"/>
<path d="M0 0 C0.66 0 1.32 0 2 0 C0.40171624 5.11450802 -2.73269958 8.85650623 -6 13 C-6.7425 14.010625 -7.485 15.02125 -8.25 16.0625 C-16.65050194 25.87641973 -30.35629939 31.61959598 -43 33 C-46.34219219 33.13313678 -49.65802538 33.12799052 -53 33 C-50.2167907 27.56385928 -47.59216906 23.06734974 -43 19 C-44.58966812 23.03531138 -46.28717809 27.0159293 -48 31 C-45.64506308 30.54537897 -43.29110915 30.086405 -40.9375 29.625 C-40.28072266 29.49867188 -39.62394531 29.37234375 -38.94726562 29.2421875 C-35.62700001 28.58794797 -32.3767102 27.85332723 -29.12890625 26.8984375 C-26 26 -26 26 -24 26 C-24 25.34 -24 24.68 -24 24 C-21.35261084 22.5393715 -20.10551666 22 -17 22 C-16.505 20.515 -16.505 20.515 -16 19 C-14.51171875 17.5703125 -14.51171875 17.5703125 -12.6875 16.125 C-8.78191833 12.89307102 -5.63347324 9.90041973 -4 5 C-3.34 5 -2.68 5 -2 5 C-1.34 3.35 -0.68 1.7 0 0 Z " fill="#93B450" transform="translate(643,457)"/>
<path d="M0 0 C7.92 0 15.84 0 24 0 C23.855625 3.444375 23.71125 6.88875 23.5625 10.4375 C23.49784546 12.06836548 23.49784546 12.06836548 23.43188477 13.73217773 C23.39377686 14.58239502 23.35566895 15.4326123 23.31640625 16.30859375 C23.27974854 17.18314209 23.24309082 18.05769043 23.20532227 18.95874023 C23 21 23 21 22 22 C21.79068103 24.16296273 21.63202931 26.3309471 21.5 28.5 C21.11111111 34.88888889 21.11111111 34.88888889 20 36 C19.83945952 38.1643235 19.72228599 40.33191216 19.625 42.5 C19.24813967 48.54212129 18.22422253 53.39109101 16 59 C15.67 59 15.34 59 15 59 C14.80344666 52.28910733 15.5658707 45.91648659 16.53125 39.28125 C16.68662231 38.18276733 16.84199463 37.08428467 17.0020752 35.95251465 C17.49620089 32.46758249 17.99798196 28.98380308 18.5 25.5 C18.83774687 23.12767633 19.17499182 20.75528115 19.51171875 18.3828125 C20.334404 12.58754201 21.16744615 6.79389514 22 1 C14.74 1 7.48 1 0 1 C0 0.67 0 0.34 0 0 Z " fill="#C3E8D0" transform="translate(390,497)"/>
<path d="M0 0 C1.5631897 0.00785522 1.5631897 0.00785522 3.15795898 0.01586914 C4.28266602 0.0190918 5.40737305 0.02231445 6.56616211 0.02563477 C7.75016602 0.03401367 8.93416992 0.04239258 10.15405273 0.05102539 C11.34192383 0.05553711 12.52979492 0.06004883 13.75366211 0.06469727 C16.69967499 0.07652864 19.64558954 0.09301252 22.59155273 0.11352539 C22.59155273 0.44352539 22.59155273 0.77352539 22.59155273 1.11352539 C14.67155273 1.11352539 6.75155273 1.11352539 -1.40844727 1.11352539 C-1.5205957 2.91305664 -1.63274414 4.71258789 -1.74829102 6.56665039 C-2.1524407 11.8327137 -2.77870801 17.01020542 -3.59985352 22.22290039 C-3.76485855 23.27737366 -3.76485855 23.27737366 -3.93319702 24.35314941 C-4.38900945 27.24318896 -4.85007909 30.13218597 -5.32714844 33.01879883 C-6.65848627 41.13028552 -7.6338439 49.08936749 -7.68188477 57.32055664 C-7.68889908 58.01489807 -7.69591339 58.7092395 -7.70314026 59.42462158 C-7.64503269 65.28734864 -6.19105321 70.00649359 -3.40844727 75.11352539 C-3.07844727 75.77352539 -2.74844727 76.43352539 -2.40844727 77.11352539 C-4.30004883 76.81958008 -4.30004883 76.81958008 -6.40844727 76.11352539 C-9.89554258 69.48490278 -9.80178461 63.22748125 -9.65844727 55.86352539 C-9.65329102 54.78844727 -9.64813477 53.71336914 -9.64282227 52.60571289 C-9.59942171 48.25480689 -9.53208378 44.32498896 -8.40844727 40.11352539 C-8.15643923 36.85492153 -7.96783953 33.60177227 -7.80297852 30.33813477 C-7.510857 25.21593513 -7.510857 25.21593513 -6.40844727 24.11352539 C-6.19901117 22.13842666 -6.04040905 20.15780857 -5.90844727 18.17602539 C-5.51848853 12.33360792 -5.51848853 12.33360792 -4.40844727 10.11352539 C-4.10052857 7.78275196 -3.89949453 5.45110643 -3.68969727 3.10961914 C-3.27664961 0.17812816 -2.99147415 0.14100714 0 0 Z " fill="#DCFBE7" transform="translate(294.408447265625,495.886474609375)"/>
<path d="M0 0 C1.11375 0.495 1.11375 0.495 2.25 1 C-0.75 3 -0.75 3 -3.01171875 2.7578125 C-4.21248047 2.44457031 -4.21248047 2.44457031 -5.4375 2.125 C-6.24574219 1.92132812 -7.05398437 1.71765625 -7.88671875 1.5078125 C-8.50160156 1.34023438 -9.11648437 1.17265625 -9.75 1 C-9.75 1.66 -9.75 2.32 -9.75 3 C-9.151875 3.144375 -8.55375 3.28875 -7.9375 3.4375 C-3.70637247 4.52550422 -1.97373472 5.60966458 0.8125 8.9375 C2.58130568 11.03343963 4.30994888 13.05994888 6.25 15 C6.25 15.99 6.25 16.98 6.25 18 C7.24 18.33 8.23 18.66 9.25 19 C10.890625 21.87109375 10.890625 21.87109375 12.5 25.4375 C13.04140625 26.61183594 13.5828125 27.78617188 14.140625 28.99609375 C14.50671875 29.98738281 14.8728125 30.97867188 15.25 32 C14.755 32.99 14.755 32.99 14.25 34 C13.63253906 32.96101562 13.01507813 31.92203125 12.37890625 30.8515625 C4.15298742 17.21372572 -3.68704538 5.53057695 -19.75 1 C-13.91241666 -2.51930862 -6.36034381 -1.69609168 0 0 Z " fill="#23457B" transform="translate(214.75,522)"/>
<path d="M0 0 C-25.12903226 13 -25.12903226 13 -32 13 C-32 12.34 -32 11.68 -32 11 C-31.360625 10.87625 -30.72125 10.7525 -30.0625 10.625 C-29.381875 10.41875 -28.70125 10.2125 -28 10 C-27.67 9.34 -27.34 8.68 -27 8 C-34.92 7.67 -42.84 7.34 -51 7 C-51 6.67 -51 6.34 -51 6 C-50.44352783 5.9906543 -49.88705566 5.98130859 -49.3137207 5.97167969 C-26.76274324 5.53869226 -26.76274324 5.53869226 -5.09765625 -0.19140625 C-3 -1 -3 -1 0 0 Z " fill="#395987" transform="translate(376,588)"/>
<path d="M0 0 C-0.9264712 1.10816566 -1.85695849 2.21297428 -2.7890625 3.31640625 C-3.30678223 3.93201416 -3.82450195 4.54762207 -4.35791016 5.18188477 C-6.69316489 7.76746936 -9.26307237 9.84955686 -12 12 C-12 9 -12 9 -10.46875 7.17578125 C-9.8190625 6.56089844 -9.169375 5.94601562 -8.5 5.3125 C-7.8503125 4.68988281 -7.200625 4.06726563 -6.53125 3.42578125 C-6.0259375 2.95527344 -5.520625 2.48476563 -5 2 C-18.54622179 0.13433576 -18.54622179 0.13433576 -30.88671875 4.390625 C-33.98848391 7.29565586 -36.48977631 10.58003081 -39 14 C-40.21499765 15.42883724 -41.44212993 16.84755623 -42.6875 18.25 C-43.20828125 18.86359375 -43.7290625 19.4771875 -44.265625 20.109375 C-47.56280508 23.70359833 -51.29262743 26.83906557 -55 30 C-55.66 29.67 -56.32 29.34 -57 29 C-27.79099678 -6.06109325 -27.79099678 -6.06109325 0 0 Z " fill="#258244" transform="translate(590,498)"/>
<path d="M0 0 C0.27908468 5.42121998 -0.57278947 9.37857235 -2.5 14.4375 C-2.85771484 15.39172852 -2.85771484 15.39172852 -3.22265625 16.36523438 C-3.80490924 17.91402732 -4.40101069 19.45760253 -5 21 C-5.33 21 -5.66 21 -6 21 C-5.88399745 19.31185763 -5.75668975 17.62449113 -5.625 15.9375 C-5.55539062 14.99777344 -5.48578125 14.05804688 -5.4140625 13.08984375 C-4.94100641 9.55977428 -4.04481267 6.40201198 -3 3 C-6.14621682 3.13822199 -9.29185566 3.28685084 -12.4375 3.4375 C-13.33533203 3.47681641 -14.23316406 3.51613281 -15.15820312 3.55664062 C-16.01220703 3.59853516 -16.86621094 3.64042969 -17.74609375 3.68359375 C-18.53685303 3.72025146 -19.3276123 3.75690918 -20.14233398 3.79467773 C-22.01401441 3.80563257 -22.01401441 3.80563257 -23 5 C-24.51928038 5.07179964 -26.04167482 5.08392007 -27.5625 5.0625 C-28.38878906 5.05347656 -29.21507812 5.04445313 -30.06640625 5.03515625 C-30.70449219 5.02355469 -31.34257813 5.01195312 -32 5 C-22.95995758 -1.02669495 -10.45428247 -0.39533001 0 0 Z " fill="#9BBE4C" transform="translate(651,436)"/>
<path d="M0 0 C0.33 0 0.66 0 1 0 C0.35615415 11.76683796 -1.35417248 23.33609192 -3 35 C4.59 35 12.18 35 20 35 C20 35.66 20 36.32 20 37 C12.08 37 4.16 37 -4 37 C-4.23121879 12.0283704 -4.23121879 12.0283704 0 0 Z " fill="#DBFAE6" transform="translate(502,547)"/>
<path d="M0 0 C7.59 0 15.18 0 23 0 C23 2.64 23 5.28 23 8 C22.67 8 22.34 8 22 8 C22 6.02 22 4.04 22 2 C20.97519531 2.01160156 19.95039062 2.02320313 18.89453125 2.03515625 C17.533856 2.04454022 16.17317876 2.05363977 14.8125 2.0625 C14.13896484 2.07087891 13.46542969 2.07925781 12.77148438 2.08789062 C9.04565869 2.10606538 5.6211958 1.89299392 2 1 C2.020625 2.27875 2.04125 3.5575 2.0625 4.875 C2.125 8.75 2.125 8.75 1 11 C0.56294188 14.40831877 0.1815563 17.81564859 -0.16210938 21.234375 C-0.78503983 26.78503983 -0.78503983 26.78503983 -3 29 C-3.18341374 22.51938127 -2.47925154 16.39938866 -1.5 10 C-1.005 6.7 -0.51 3.4 0 0 Z " fill="#2C8449" transform="translate(515,461)"/>
<path d="M0 0 C0.99 0.33 1.98 0.66 3 1 C1.81857422 1.91845703 1.81857422 1.91845703 0.61328125 2.85546875 C-3.14607265 6.61482265 -3.24844539 11.24255305 -3.8125 16.3125 C-4.204375 19.509375 -4.59625 22.70625 -5 26 C-12.59 26 -20.18 26 -28 26 C-28 20.80942241 -27.980503 16.90251498 -27 12 C-26.67 12 -26.34 12 -26 12 C-26 15.96 -26 19.92 -26 24 C-19.73 24 -13.46 24 -7 24 C-6.855625 22.370625 -6.71125 20.74125 -6.5625 19.0625 C-6.125 14.125 -6.125 14.125 -5 13 C-4.86898863 11.56469761 -4.76992531 10.12641036 -4.6875 8.6875 C-4.35843679 5.24330506 -4.17989738 4.22350887 -1.9375 1.4375 C-1.298125 0.963125 -0.65875 0.48875 0 0 Z " fill="#288346" transform="translate(527,556)"/>
<path d="M0 0 C0.33 0 0.66 0 1 0 C0.33531644 9.68852513 -0.84206047 19.29566471 -2.10180664 28.92089844 C-2.44035184 31.52191042 -2.76808464 34.12415444 -3.09570312 36.7265625 C-3.31184043 38.3907108 -3.52861398 40.05477661 -3.74609375 41.71875 C-3.84200302 42.49166382 -3.93791229 43.26457764 -4.03672791 44.06091309 C-4.52649176 47.71549123 -5.03432538 50.83825793 -7 54 C-7.02691685 51.54159395 -7.04679802 49.08348118 -7.0625 46.625 C-7.07087891 45.92632813 -7.07925781 45.22765625 -7.08789062 44.5078125 C-7.11328125 39.2265625 -7.11328125 39.2265625 -6 37 C-5.84052261 35.1276173 -5.72278892 33.25161592 -5.625 31.375 C-4.88240697 20.75474094 -2.78150617 10.27017662 0 0 Z " fill="#DBFAE6" transform="translate(384,526)"/>
<path d="M0 0 C4.27081914 -0.02897435 8.54161309 -0.04678996 12.8125 -0.0625 C14.63491211 -0.07506836 14.63491211 -0.07506836 16.49414062 -0.08789062 C18.23920898 -0.09272461 18.23920898 -0.09272461 20.01953125 -0.09765625 C21.09307861 -0.10289307 22.16662598 -0.10812988 23.27270508 -0.11352539 C26 0 26 0 29 1 C29 1.66 29 2.32 29 3 C28.17798096 3.0093457 27.35596191 3.01869141 26.5090332 3.02832031 C22.77625038 3.08207871 19.04471319 3.16571831 15.3125 3.25 C13.37213867 3.27126953 13.37213867 3.27126953 11.39257812 3.29296875 C9.52182617 3.34130859 9.52182617 3.34130859 7.61328125 3.390625 C6.46641846 3.41157227 5.31955566 3.43251953 4.13793945 3.45410156 C0.42432379 4.10014876 -1.28579765 5.44807183 -4 8 C-4 7.01 -4 6.02 -4 5 C-3.34 5 -2.68 5 -2 5 C-1.34 3.35 -0.68 1.7 0 0 Z " fill="#CFEDDB" transform="translate(561,495)"/>
<path d="M0 0 C4.875 4.75 4.875 4.75 6 7 C3.98299841 7.82196606 1.96118631 8.63213217 -0.0625 9.4375 C-1.75052734 10.11619141 -1.75052734 10.11619141 -3.47265625 10.80859375 C-16.05389288 15.05807013 -33.62037026 14.75971655 -46 10 C-46.99 9.34 -47.98 8.68 -49 8 C-47.66597118 8.11734513 -46.3327986 8.24442176 -45 8.375 C-44.2575 8.44460938 -43.515 8.51421875 -42.75 8.5859375 C-40 9 -40 9 -36.18359375 10.015625 C-32.14786181 11.04982263 -28.22180118 11.38292342 -24.0625 11.375 C-23.34392822 11.37628906 -22.62535645 11.37757813 -21.88500977 11.37890625 C-13.64640293 11.22172524 -5.89505078 9.21338094 2 7 C1.34 4.69 0.68 2.38 0 0 Z " fill="#398C55" transform="translate(237,571)"/>
<path d="M0 0 C0.66 0.33 1.32 0.66 2 1 C1.65066406 1.81984375 1.30132812 2.6396875 0.94140625 3.484375 C0.48636719 4.56203125 0.03132813 5.6396875 -0.4375 6.75 C-0.88996094 7.81734375 -1.34242188 8.8846875 -1.80859375 9.984375 C-6.30962535 21.37715008 -5.34459471 36.7247423 -1 48 C-1.66 48 -2.32 48 -3 48 C-3 46.68 -3 45.36 -3 44 C-3.66 44 -4.32 44 -5 44 C-7.11987288 37.92753547 -7.33390713 32.33823127 -7.3125 25.9375 C-7.32861328 24.97005859 -7.34472656 24.00261719 -7.36132812 23.00585938 C-7.36508819 17.51240769 -6.94985252 13.79723491 -4 9 C-3.649375 7.948125 -3.29875 6.89625 -2.9375 5.8125 C-2 3 -2 3 0 0 Z " fill="#CFF3DA" transform="translate(424,517)"/>
<path d="M0 0 C2.00767321 -0.04904739 4.01784634 0.02516878 6.0234375 0.12890625 C6.6834375 0.78890625 7.3434375 1.44890625 8.0234375 2.12890625 C7.73488831 7.8037069 6.46749764 12.02825899 4.0234375 17.12890625 C3.0234375 15.12890625 3.0234375 15.12890625 3.8984375 12.44140625 C4.2696875 11.34828125 4.6409375 10.25515625 5.0234375 9.12890625 C5.38183972 6.79929182 5.71846359 4.46611537 6.0234375 2.12890625 C2.56354895 2.38174775 -0.89392571 2.65955781 -4.3515625 2.94140625 C-5.79982422 3.04678711 -5.79982422 3.04678711 -7.27734375 3.15429688 C-13.14147664 3.64625433 -18.35060847 4.64431779 -23.90478516 6.61206055 C-25.9765625 7.12890625 -25.9765625 7.12890625 -28.9765625 6.12890625 C-27.3265625 5.79890625 -25.6765625 5.46890625 -23.9765625 5.12890625 C-23.9765625 4.46890625 -23.9765625 3.80890625 -23.9765625 3.12890625 C-19.77328629 1.12501875 -15.81300923 0.70934197 -11.2265625 0.50390625 C-10.51935059 0.46740967 -9.81213867 0.43091309 -9.08349609 0.39331055 C-6.05638726 0.24518134 -3.02788888 0.13112905 0 0 Z " fill="#EDF7CC" transform="translate(644.9765625,433.87109375)"/>
<path d="M0 0 C0.33 0 0.66 0 1 0 C1 3.63 1 7.26 1 11 C2.0725 9.68 3.145 8.36 4.25 7 C6.078125 4.75 6.078125 4.75 8 3 C9.32 3 10.64 3 12 3 C11.58221009 8.7097955 9.42453429 11.60957142 6 16 C5.34 15.01 4.68 14.02 4 13 C3.34 13.66 2.68 14.32 2 15 C1.01 15 0.02 15 -1 15 C-1.02715383 13.25008666 -1.04646551 11.50005055 -1.0625 9.75 C-1.07410156 8.77546875 -1.08570313 7.8009375 -1.09765625 6.796875 C-1.01195577 4.34241322 -0.70706066 2.33831086 0 0 Z " fill="#F4FDD9" transform="translate(587,470)"/>
<path d="M0 0 C0 0.99 0 1.98 0 3 C-2 4 -4 5 -6 6 C-7.0725 6.556875 -8.145 7.11375 -9.25 7.6875 C-12 9 -12 9 -14 9 C-14.21398437 9.54140625 -14.42796875 10.0828125 -14.6484375 10.640625 C-16.48077943 13.8392797 -18.99796606 16.20964484 -21.625 18.75 C-22.140625 19.25660156 -22.65625 19.76320313 -23.1875 20.28515625 C-24.45383339 21.52803902 -25.7263144 22.76465276 -27 24 C-27.66 23.67 -28.32 23.34 -29 23 C-22.97968256 14.70325003 -11.34979338 0 0 0 Z " fill="#2B8949" transform="translate(195,465)"/>
<path d="M0 0 C0.33 0.99 0.66 1.98 1 3 C-0.36328125 5.04296875 -0.36328125 5.04296875 -2.3125 7.1875 C-2.94800781 7.90292969 -3.58351563 8.61835938 -4.23828125 9.35546875 C-6 11 -6 11 -8 11 C-8.19335938 11.61488281 -8.38671875 12.22976563 -8.5859375 12.86328125 C-8.84632813 13.67152344 -9.10671875 14.47976563 -9.375 15.3125 C-9.63023437 16.11300781 -9.88546875 16.91351563 -10.1484375 17.73828125 C-11 20 -11 20 -13 23 C-13.38499891 24.65549531 -13.72793135 26.3222433 -14 28 C-13.34 28.33 -12.68 28.66 -12 29 C-13.32 30.32 -14.64 31.64 -16 33 C-16.70263877 22.22620559 -12.44771021 13.46091931 -6 5 C-4.07948347 3.06271039 -2.23498771 1.58084497 0 0 Z " fill="#98B950" transform="translate(603,449)"/>
<path d="M0 0 C-0.6290625 0.46148437 -1.258125 0.92296875 -1.90625 1.3984375 C-12.34290561 9.35167204 -18.39106021 17.90177747 -23.5546875 29.77734375 C-25 33 -25 33 -27 36 C-26 28.57142857 -26 28.57142857 -25 25 C-24.34 25 -23.68 25 -23 25 C-22.896875 24.29875 -22.79375 23.5975 -22.6875 22.875 C-21.90640997 19.60862353 -20.57941257 16.9528148 -19 14 C-18.34 14 -17.68 14 -17 14 C-17 13.34 -17 12.68 -17 12 C-16.34 12 -15.68 12 -15 12 C-14.7525 11.2575 -14.505 10.515 -14.25 9.75 C-12.89534961 6.76976913 -11.4898459 5.10080748 -9 3 C-8.34 3 -7.68 3 -7 3 C-6.67 2.01 -6.34 1.02 -6 0 C-3 -1 -3 -1 0 0 Z " fill="#D9F9E5" transform="translate(184,471)"/>
<path d="M0 0 C0.33 1.32 0.66 2.64 1 4 C0.13375 4.185625 0.13375 4.185625 -0.75 4.375 C-5.79160345 5.7754454 -7.76752258 7.9055286 -11 12 C-11.66 12 -12.32 12 -13 12 C-12.95875 13.051875 -12.9175 14.10375 -12.875 15.1875 C-12.99680396 18.90252078 -13.57007886 20.66351735 -15 24 C-15.74714502 26.98353181 -16.38298286 29.98711843 -17 33 C-17.33 33 -17.66 33 -18 33 C-17.76898084 30.05081921 -17.5251056 27.10528132 -17.24609375 24.16015625 C-16.9480966 21.16327022 -16.9480966 21.16327022 -17.09765625 18.80859375 C-17.16526264 14.18238489 -15.33147876 11.94614565 -12.14404297 8.62719727 C-3.42009995 0 -3.42009995 0 0 0 Z " fill="#D1F3DC" transform="translate(540,549)"/>
<path d="M0 0 C0.33 0 0.66 0 1 0 C1.07369952 4.56937042 1.01846963 8.95936537 0.5 13.5 C-0.15015766 19.71082288 -0.10965161 25.88647935 -0.0625 32.125 C-0.05798828 33.27226563 -0.05347656 34.41953125 -0.04882812 35.6015625 C-0.03716339 38.40109813 -0.02079614 41.20051986 0 44 C-3.34159862 40.94897517 -3.95739325 38.85124735 -4.1875 34.25390625 C-4.10995304 27.42008035 -2.98538192 20.68720083 -2 13.9375 C-1.80672033 12.58146152 -1.61400763 11.2253421 -1.421875 9.86914062 C-0.95346925 6.57859025 -0.47936892 3.28896801 0 0 Z " fill="#CDF0D7" transform="translate(314,514)"/>
<path d="M0 0 C1.07765625 0.01804687 2.1553125 0.03609375 3.265625 0.0546875 C4.49539063 0.08949219 4.49539063 0.08949219 5.75 0.125 C5.75 0.455 5.75 0.785 5.75 1.125 C4.58984375 1.23714844 4.58984375 1.23714844 3.40625 1.3515625 C-5.6490702 2.4946846 -10.81903589 4.97172765 -16.625 12 C-20.26184126 18.9939255 -20.53486373 25.40202775 -20.25 33.125 C-20.91 33.125 -21.57 33.125 -22.25 33.125 C-22.80353075 17.19561503 -22.80353075 17.19561503 -19.25 11.125 C-18.59 11.125 -17.93 11.125 -17.25 11.125 C-17.146875 10.485625 -17.04375 9.84625 -16.9375 9.1875 C-16.710625 8.506875 -16.48375 7.82625 -16.25 7.125 C-15.26 6.795 -14.27 6.465 -13.25 6.125 C-13.25 5.465 -13.25 4.805 -13.25 4.125 C-12.26 4.125 -11.27 4.125 -10.25 4.125 C-10.25 3.465 -10.25 2.805 -10.25 2.125 C-6.7733662 -0.01836161 -4.03770805 -0.08777626 0 0 Z " fill="#378950" transform="translate(463.25,515.875)"/>
<path d="M0 0 C1.02802734 0.05478516 2.05605469 0.10957031 3.11523438 0.16601562 C4.72301758 0.27526367 4.72301758 0.27526367 6.36328125 0.38671875 C7.44673828 0.44794922 8.53019531 0.50917969 9.64648438 0.57226562 C12.32406503 0.72560725 14.99993407 0.89346532 17.67578125 1.07421875 C17.67578125 1.40421875 17.67578125 1.73421875 17.67578125 2.07421875 C10.08578125 2.40421875 2.49578125 2.73421875 -5.32421875 3.07421875 C-6.64421875 11.98421875 -7.96421875 20.89421875 -9.32421875 30.07421875 C-9.65421875 30.07421875 -9.98421875 30.07421875 -10.32421875 30.07421875 C-10.95562676 6.67704429 -10.95562676 6.67704429 -7.11132812 1.41357422 C-4.62997377 -0.44608562 -3.06694509 -0.18638893 0 0 Z " fill="#E1FCEB" transform="translate(395.32421875,494.92578125)"/>
<path d="M0 0 C7.92 0 15.84 0 24 0 C23.67 3.3 23.34 6.6 23 10 C22.67 10 22.34 10 22 10 C22 7.36 22 4.72 22 2 C15.4 2 8.8 2 2 2 C1.67 4.64 1.34 7.28 1 10 C0.01 10.495 0.01 10.495 -1 11 C-0.67 7.37 -0.34 3.74 0 0 Z " fill="#479260" transform="translate(293,497)"/>
<path d="M0 0 C-3.01648726 2.43886204 -6.03932453 4.02057122 -9.5625 5.625 C-15.29578778 8.42138301 -19.90763946 11.88941557 -24.72265625 16.046875 C-27 18 -27 18 -30 20 C-29.11540953 13.80786672 -23.52443425 10.75599124 -18.90234375 7.171875 C-17 6 -17 6 -14 6 C-14 5.34 -14 4.68 -14 4 C-4.58997722 -0.59225513 -4.58997722 -0.59225513 0 0 Z " fill="#9BBA50" transform="translate(628,450)"/>
<path d="M0 0 C15.76662287 -0.31221035 32.0307432 -0.51644228 45 10 C41.29974185 9.62997419 38.47867538 8.8277717 35.25 7.0625 C27.77119843 3.13826191 19.29006347 2.69601732 11 2 C8.95826836 1.8132088 6.91660095 1.62571417 4.875 1.4375 C3.25004117 1.29120869 1.6250563 1.14520465 0 1 C0 0.67 0 0.34 0 0 Z " fill="#3B8E54" transform="translate(210,460)"/>
<path d="M0 0 C1.98 0 3.96 0 6 0 C3.25520361 2.09749747 0.45400844 4.04824752 -2.4375 5.9375 C-9.37968244 10.5883085 -13.58052769 14.89239505 -18 22 C-18.33 20.68 -18.66 19.36 -19 18 C-18.34 18 -17.68 18 -17 18 C-17 16.35 -17 14.7 -17 13 C-16.01 13 -15.02 13 -14 13 C-13.9175 12.401875 -13.835 11.80375 -13.75 11.1875 C-12.77705573 8.34974589 -11.55550687 7.50323933 -9 6 C-8.01 6 -7.02 6 -6 6 C-5.67 5.01 -5.34 4.02 -5 3 C-3.67696283 2.6278958 -2.34262065 2.29369827 -1 2 C-0.67 1.34 -0.34 0.68 0 0 Z " fill="#F5FDDD" transform="translate(610,441)"/>
<path d="M0 0 C0.66 0 1.32 0 2 0 C1.44027094 9.72003611 0.37941943 19.24522007 -1.0625 28.875 C-1.24876953 30.14730469 -1.43503906 31.41960937 -1.62695312 32.73046875 C-2.0800783 35.82101479 -2.53780828 38.91079922 -3 42 C-3.33 42 -3.66 42 -4 42 C-4.22534537 34.68879482 -3.97705818 27.56305137 -3.0625 20.3125 C-2.97564941 19.61769531 -2.88879883 18.92289062 -2.79931641 18.20703125 C-2.13757283 13.27514566 -2.13757283 13.27514566 -1 11 C-0.7724985 9.12943209 -0.59037189 7.25314042 -0.4375 5.375 C-0.31181641 3.87066406 -0.31181641 3.87066406 -0.18359375 2.3359375 C-0.12300781 1.56507813 -0.06242188 0.79421875 0 0 Z " fill="#2F874B" transform="translate(535,471)"/>
<path d="M0 0 C0.66 0.33 1.32 0.66 2 1 C-1.83942338 4.41896779 -5.5534624 7.39714872 -10 10 C-11.40977978 10.95897811 -12.80461424 11.94013095 -14.1875 12.9375 C-14.86167969 13.42089844 -15.53585937 13.90429688 -16.23046875 14.40234375 C-18.15883778 16.14340983 -18.89653394 17.67666851 -20 20 C-22.625 22.25 -22.625 22.25 -25 24 C-25.66 23.67 -26.32 23.34 -27 23 C-19.86634115 14.02754088 -10.3234039 5.24421584 0 0 Z " fill="#93B748" transform="translate(627,452)"/>
<path d="M0 0 C7.59 0 15.18 0 23 0 C23 2.31 23 4.62 23 7 C21 4 21 4 21 2 C18.02046641 2.14017826 15.04150696 2.28686342 12.0625 2.4375 C10.78729492 2.49647461 10.78729492 2.49647461 9.48632812 2.55664062 C8.67744141 2.59853516 7.86855469 2.64042969 7.03515625 2.68359375 C6.2862915 2.72025146 5.53742676 2.75690918 4.76586914 2.79467773 C2.97538674 2.81771063 2.97538674 2.81771063 2 4 C1.76807135 5.51469448 1.58784762 7.03754562 1.4375 8.5625 C1.35371094 9.38878906 1.26992188 10.21507812 1.18359375 11.06640625 C1.12300781 11.70449219 1.06242187 12.34257812 1 13 C0.34 12.34 -0.32 11.68 -1 11 C-0.67 7.37 -0.34 3.74 0 0 Z " fill="#44905E" transform="translate(350,497)"/>
<path d="M0 0 C-3.25258026 0.99384397 -6.03465371 1.04826731 -9.421875 0.87890625 C-10.95908203 0.80639648 -10.95908203 0.80639648 -12.52734375 0.73242188 C-14.12255859 0.64831055 -14.12255859 0.64831055 -15.75 0.5625 C-16.82894531 0.51029297 -17.90789062 0.45808594 -19.01953125 0.40429688 C-21.67999422 0.27480531 -24.34006452 0.13984639 -27 0 C-26 -2 -26 -2 -24.39453125 -2.609375 C-16.26721712 -3.93520112 -7.24058265 -4.23838984 0 0 Z " fill="#D3F1DE" transform="translate(483,496)"/>
<path d="M0 0 C0.66 0 1.32 0 2 0 C0.40285029 5.11087907 -2.72815587 8.86327937 -6 13 C-6.78375 14.03125 -7.5675 15.0625 -8.375 16.125 C-11.54949935 19.60183262 -14.99771467 22.50851112 -19 25 C-19.66 25 -20.32 25 -21 25 C-20.505 23.515 -20.505 23.515 -20 22 C-19.01 22 -18.02 22 -17 22 C-16.67 21.01 -16.34 20.02 -16 19 C-14.51171875 17.5703125 -14.51171875 17.5703125 -12.6875 16.125 C-8.78191833 12.89307102 -5.63347324 9.90041973 -4 5 C-3.34 5 -2.68 5 -2 5 C-1.34 3.35 -0.68 1.7 0 0 Z " fill="#9DBA54" transform="translate(643,457)"/>
<path d="M0 0 C-6.46512198 2.79213494 -12.67791504 3.30171783 -19.625 3.3125 C-20.42397705 3.31765625 -21.2229541 3.3228125 -22.04614258 3.328125 C-27.32873913 3.26712378 -31.92223408 2.45826001 -37 1 C-37 0.67 -37 0.34 -37 0 C-36.24904053 0.00523682 -35.49808105 0.01047363 -34.72436523 0.01586914 C-31.29541879 0.03675961 -27.86648579 0.04969845 -24.4375 0.0625 C-23.25607422 0.07087891 -22.07464844 0.07925781 -20.85742188 0.08789062 C-13.85741847 0.15312115 -13.85741847 0.15312115 -6.91015625 -0.56640625 C-4.16939243 -0.97476167 -2.57724354 -0.92780767 0 0 Z " fill="#D7F7E0" transform="translate(234,583)"/>
<path d="M0 0 C0.66 0 1.32 0 2 0 C6.28458352 9.64031291 5.40612362 17.90287411 3 28 C2.01 28.33 1.02 28.66 0 29 C0.24363281 28.07380859 0.24363281 28.07380859 0.4921875 27.12890625 C1.20704534 22.7242822 1.14426931 18.39192326 1.125 13.9375 C1.12886719 13.03966797 1.13273438 12.14183594 1.13671875 11.21679688 C1.13542969 10.34990234 1.13414062 9.48300781 1.1328125 8.58984375 C1.13168457 7.80472412 1.13055664 7.01960449 1.12939453 6.21069336 C1.00121514 4.0207606 0.60390331 2.10406629 0 0 Z " fill="#3B9255" transform="translate(250,504)"/>
<path d="M0 0 C7.59 0 15.18 0 23 0 C23.04125 3.01125 23.0825 6.0225 23.125 9.125 C23.14320801 10.06230957 23.16141602 10.99961914 23.18017578 11.96533203 C23.211564 16.71912849 22.85873639 20.53610551 21 25 C20.67 25 20.34 25 20 25 C20.14260966 22.49977963 20.28901464 19.9998729 20.4375 17.5 C20.47681641 16.80390625 20.51613281 16.1078125 20.55664062 15.390625 C20.59853516 14.69453125 20.64042969 13.9984375 20.68359375 13.28125 C20.72025146 12.65283203 20.75690918 12.02441406 20.79467773 11.37695312 C21.0943592 7.90763239 21.56808129 4.4553497 22 1 C14.74 1 7.48 1 0 1 C0 0.67 0 0.34 0 0 Z " fill="#BCE8CC" transform="translate(516,460)"/>
<path d="M0 0 C0.99 0.33 1.98 0.66 3 1 C-3.93 6.94 -3.93 6.94 -11 13 C-13.21354167 11.50260417 -15.42708333 10.00520833 -17.640625 8.5078125 C-19.71555692 7.18177985 -21.77614972 6.05071825 -24 5 C-22.4375 4.25 -22.4375 4.25 -20 4 C-18.20522386 4.96148722 -16.4112409 5.93035514 -14.68359375 7.0078125 C-12.82978521 8.1003122 -11.12365901 8.66021456 -9 9 C-9 8.34 -9 7.68 -9 7 C-8.01 7 -7.02 7 -6 7 C-5.67 6.01 -5.34 5.02 -5 4 C-2.625 1.75 -2.625 1.75 0 0 Z " fill="#33884E" transform="translate(495,512)"/>
<path d="M0 0 C3.98347226 -0.07480519 7.96666594 -0.12890718 11.95068359 -0.16479492 C13.96336248 -0.18709408 15.97584584 -0.22523653 17.98828125 -0.26367188 C25.00266681 -0.31654413 30.72295631 -0.30006341 37 3 C37.66 3.99 38.32 4.98 39 6 C38.29875 5.79503906 37.5975 5.59007812 36.875 5.37890625 C35.92625 5.10949219 34.9775 4.84007812 34 4.5625 C33.071875 4.29566406 32.14375 4.02882813 31.1875 3.75390625 C23.76710618 1.99883761 16.58542727 1.86949272 9 1.9375 C8.03449219 1.94201172 7.06898438 1.94652344 6.07421875 1.95117188 C3.71607911 1.96284583 1.35807398 1.97921979 -1 2 C-0.67 1.34 -0.34 0.68 0 0 Z " fill="#D8F9E3" transform="translate(208,459)"/>
<path d="M0 0 C0.33 0 0.66 0 1 0 C1.02693575 2.12493141 1.04636628 4.24995912 1.0625 6.375 C1.07410156 7.55835938 1.08570313 8.74171875 1.09765625 9.9609375 C1 13 1 13 0 15 C-0.27358115 17.85306062 -0.44625242 20.70570456 -0.62109375 23.56640625 C-0.80865234 24.77103516 -0.80865234 24.77103516 -1 26 C-3.64822012 27.32411006 -5.48938194 27.01892401 -8.4453125 26.87890625 C-9.52167969 26.83056641 -10.59804688 26.78222656 -11.70703125 26.73242188 C-12.83496094 26.67634766 -13.96289062 26.62027344 -15.125 26.5625 C-16.26066406 26.51029297 -17.39632813 26.45808594 -18.56640625 26.40429688 C-21.37786631 26.27435544 -24.18899465 26.13938086 -27 26 C-27 25.67 -27 25.34 -27 25 C-19.08 25 -11.16 25 -3 25 C-2.01 16.75 -1.02 8.5 0 0 Z " fill="#D1F6DD" transform="translate(404,557)"/>
<path d="M0 0 C0.79776855 0.09394043 1.59553711 0.18788086 2.41748047 0.28466797 C8.14541328 1.08291328 8.14541328 1.08291328 10.4375 3.375 C7.4375 4.375 7.4375 4.375 4.4375 3.375 C1.50942556 3.25156157 -1.38445435 3.18985373 -4.3125 3.1875 C-5.09882813 3.17525391 -5.88515625 3.16300781 -6.6953125 3.15039062 C-11.70680555 3.13790352 -15.81214503 3.76826229 -20.5625 5.375 C-20.5625 4.715 -20.5625 4.055 -20.5625 3.375 C-13.57387562 -0.35021388 -7.70729672 -0.90827764 0 0 Z " fill="#378D4F" transform="translate(223.5625,481.625)"/>
<path d="M0 0 C2.0625 0.4375 2.0625 0.4375 4 1 C2.79443396 1.63032133 1.58536811 2.2539497 0.375 2.875 C-0.63433594 3.39707031 -0.63433594 3.39707031 -1.6640625 3.9296875 C-8.25147779 6.94800153 -13.72611444 7.25092888 -20.875 7.125 C-21.84953125 7.11597656 -22.8240625 7.10695313 -23.828125 7.09765625 C-26.21900728 7.07421623 -28.60937261 7.04140442 -31 7 C-31 6.67 -31 6.34 -31 6 C-30.00742187 5.97421875 -29.01484375 5.9484375 -27.9921875 5.921875 C-12.98706268 5.76662246 -12.98706268 5.76662246 0 0 Z " fill="#378C51" transform="translate(480,577)"/>
<path d="M0 0 C0.33 0 0.66 0 1 0 C1.29587798 8.93113164 1.51136799 16.63093639 -2 25 C-2.13535156 25.71671875 -2.27070313 26.4334375 -2.41015625 27.171875 C-2.60480469 27.77515625 -2.79945313 28.3784375 -3 29 C-3.99 29.33 -4.98 29.66 -6 30 C-5.73445313 28.92363281 -5.46890625 27.84726562 -5.1953125 26.73828125 C-3.03640458 17.85676262 -1.19874197 9.06942936 0 0 Z " fill="#D0F2DB" transform="translate(368,532)"/>
<path d="M0 0 C0.33 1.32 0.66 2.64 1 4 C0.01 4.33 -0.98 4.66 -2 5 C-2 5.66 -2 6.32 -2 7 C-2.99 7 -3.98 7 -5 7 C-5.22429688 7.56203125 -5.44859375 8.1240625 -5.6796875 8.703125 C-7.38671923 11.67275417 -9.54806544 13.50344167 -12.125 15.75 C-13.03507813 16.54921875 -13.94515625 17.3484375 -14.8828125 18.171875 C-15.58148437 18.77515625 -16.28015625 19.3784375 -17 20 C-17.66 19.67 -18.32 19.34 -19 19 C-12.73 12.73 -6.46 6.46 0 0 Z " fill="#E6FEED" transform="translate(579,509)"/>
<path d="M0 0 C0.33 0 0.66 0 1 0 C1.125 7.75 1.125 7.75 0 10 C-7.92 10 -15.84 10 -24 10 C-23.67 9.34 -23.34 8.68 -23 8 C-21.60587891 8.03480469 -21.60587891 8.03480469 -20.18359375 8.0703125 C-10.81654072 8.50073087 -10.81654072 8.50073087 -2 6 C-0.46853622 2.99405579 -0.46853622 2.99405579 0 0 Z " fill="#3D8D55" transform="translate(401,572)"/>
<path d="M0 0 C3.80444774 3.57387515 6.92208357 7.42775821 10.0859375 11.57421875 C13.2140372 15.53860633 16.60208196 19.26670304 20 23 C19.01 23.33 18.02 23.66 17 24 C15.24914666 21.93821926 13.49929619 19.87560123 11.75 17.8125 C11.25886719 17.23435547 10.76773438 16.65621094 10.26171875 16.06054688 C8.04906799 13.44961898 5.87173468 10.83563203 3.765625 8.13671875 C2.17580645 5.91931259 2.17580645 5.91931259 0 5 C0 3.35 0 1.7 0 0 Z " fill="#2D5081" transform="translate(244,545)"/>
<path d="M0 0 C8.32041571 5.44367623 15.20035645 12.27194566 18 22 C17.34 22 16.68 22 16 22 C14.95703125 20.53125 14.95703125 20.53125 13.8125 18.5 C11.40322174 14.44606472 8.56847105 11.10313959 5.35546875 7.6640625 C4 6 4 6 4 4 C2.68 3.34 1.36 2.68 0 2 C0 1.34 0 0.68 0 0 Z " fill="#34884D" transform="translate(255,470)"/>
<path d="M0 0 C-2.5844586 3.15878273 -5.08695901 3.98680189 -9 5 C-12.29704691 5.23058753 -15.57204045 5.18966638 -18.875 5.125 C-19.75414062 5.11597656 -20.63328125 5.10695313 -21.5390625 5.09765625 C-23.6928271 5.07424577 -25.84645014 5.0383801 -28 5 C-28 4.67 -28 4.34 -28 4 C-26.44152344 3.83564453 -26.44152344 3.83564453 -24.8515625 3.66796875 C-17.58947386 2.85671311 -10.74367843 1.96426466 -3.8203125 -0.51171875 C-2 -1 -2 -1 0 0 Z " fill="#E6F5C5" transform="translate(618,486)"/>
<path d="M0 0 C0.33 0 0.66 0 1 0 C0.38297872 18.34042553 0.38297872 18.34042553 -3 27 C-4.04096073 23.7230251 -3.94874304 21.22250742 -3.4765625 17.83203125 C-3.3425 16.85685547 -3.2084375 15.88167969 -3.0703125 14.87695312 C-2.92335938 13.86568359 -2.77640625 12.85441406 -2.625 11.8125 C-2.48578125 10.78962891 -2.3465625 9.76675781 -2.203125 8.71289062 C-1.13743364 1.13743364 -1.13743364 1.13743364 0 0 Z " fill="#3A8E56" transform="translate(383,544)"/>
<path d="M0 0 C0.33 0 0.66 0 1 0 C1.79585256 10.687163 2.12825004 21.28399677 2 32 C-3.63870284 23.54194574 -1.53691236 9.60570226 0 0 Z " fill="#3D8D55" transform="translate(156,511)"/>
<path d="M0 0 C0.33 0 0.66 0 1 0 C0.91794473 3.62584571 0.80521876 7.25015078 0.6875 10.875 C0.66494141 11.88820313 0.64238281 12.90140625 0.61914062 13.9453125 C0.3801221 20.72474712 -0.70774199 26.61284308 -3 33 C-4.30245502 29.25087714 -3.78479309 26.14947951 -3.22265625 22.265625 C-2.94711914 20.32236328 -2.94711914 20.32236328 -2.66601562 18.33984375 C-2.46500913 16.97653811 -2.26383513 15.61325715 -2.0625 14.25 C-1.8645334 12.87119421 -1.66725997 11.49228871 -1.47070312 10.11328125 C-0.98728477 6.74114347 -0.49678949 3.37018948 0 0 Z " fill="#C0ECCE" transform="translate(373,497)"/>
<path d="M0 0 C0.33 0 0.66 0 1 0 C1 3.96 1 7.92 1 12 C7.93 12.33 14.86 12.66 22 13 C22 13.33 22 13.66 22 14 C14.41 14 6.82 14 -1 14 C-1 8.80942241 -0.980503 4.90251498 0 0 Z " fill="#388952" transform="translate(500,568)"/>
<path d="M0 0 C3.28489696 1.64244848 4.75373205 2.58488935 6.5 5.75 C4.025 5.255 4.025 5.255 1.5 4.75 C1.5 4.09 1.5 3.43 1.5 2.75 C0.6028125 2.5334375 0.6028125 2.5334375 -0.3125 2.3125 C-2.06150404 1.8627561 -3.78677023 1.32107659 -5.5 0.75 C-6.99676706 0.63340402 -8.49875061 0.57501041 -10 0.5625 C-10.7734375 0.54832031 -11.546875 0.53414062 -12.34375 0.51953125 C-14.79680056 0.61338472 -14.79680056 0.61338472 -17.5 2.75 C-19.6875 2.375 -19.6875 2.375 -21.5 1.75 C-14.93174389 -2.51049045 -7.2917924 -2.44853546 0 0 Z " fill="#D3F6DF" transform="translate(475.5,518.25)"/>
<path d="M0 0 C7.26 0 14.52 0 22 0 C22 5.51738922 21.87401535 9.75590789 21 15 C20.67 15 20.34 15 20 15 C19.505 8.565 19.505 8.565 19 2 C13.06 1.67 7.12 1.34 1 1 C0.67 1.66 0.34 2.32 0 3 C0 2.01 0 1.02 0 0 Z " fill="#297F44" transform="translate(390,498)"/>
<path d="M0 0 C0.99 0.33 1.98 0.66 3 1 C-10.62931686 8.84834258 -10.62931686 8.84834258 -15.875 7.4375 C-17.421875 6.7259375 -17.421875 6.7259375 -19 6 C-19 5.67 -19 5.34 -19 5 C-17.79601562 4.72285156 -16.59203125 4.44570313 -15.3515625 4.16015625 C-13.77601093 3.79440321 -12.20049177 3.42851055 -10.625 3.0625 C-9.8309375 2.88009766 -9.036875 2.69769531 -8.21875 2.50976562 C-7.45820313 2.33251953 -6.69765625 2.15527344 -5.9140625 1.97265625 C-4.8614624 1.72914429 -4.8614624 1.72914429 -3.78759766 1.48071289 C-1.91605426 1.0411926 -1.91605426 1.0411926 0 0 Z " fill="#4B6382" transform="translate(373,587)"/>
<path d="M0 0 C1.670625 0.49113281 1.670625 0.49113281 3.375 0.9921875 C8.28168911 2.21885978 12.96850898 2.22547524 18 2.125 C18.87011719 2.11597656 19.74023438 2.10695313 20.63671875 2.09765625 C22.7579342 2.07434619 24.87900562 2.03848579 27 2 C23.79159754 5.20840246 20.17593913 5.07186115 15.8125 5.1875 C10.73223188 5.1447368 5.931655 4.15312184 1 3 C0.67 2.01 0.34 1.02 0 0 Z " fill="#3C9055" transform="translate(199,557)"/>
<path d="M0 0 C1.25425781 0.01804687 2.50851562 0.03609375 3.80078125 0.0546875 C5.22970703 0.08949219 5.22970703 0.08949219 6.6875 0.125 C7.0175 1.115 7.3475 2.105 7.6875 3.125 C7.12804687 2.96644531 6.56859375 2.80789063 5.9921875 2.64453125 C0.49286454 1.40485336 -4.61135204 1.27442602 -9.6875 3.8125 C-12.25516605 6.07449152 -14.31129363 8.35409888 -16.3125 11.125 C-16.3125 9.475 -16.3125 7.825 -16.3125 6.125 C-14.9925 5.465 -13.6725 4.805 -12.3125 4.125 C-12.3125 3.465 -12.3125 2.805 -12.3125 2.125 C-8.09353134 0.07601713 -4.65877854 -0.08707997 0 0 Z " fill="#D0F3DD" transform="translate(407.3125,458.875)"/>
<path d="M0 0 C7.75 0.875 7.75 0.875 10 2 C11.53668865 2.22467831 13.07968054 2.40796805 14.625 2.5625 C15.44226563 2.64628906 16.25953125 2.73007812 17.1015625 2.81640625 C17.72804688 2.87699219 18.35453125 2.93757812 19 3 C18.67 3.66 18.34 4.32 18 5 C11.1781317 5.38614349 5.50422293 4.00865708 -1 2 C-0.67 1.34 -0.34 0.68 0 0 Z " fill="#25487C" transform="translate(285,600)"/>
<path d="M0 0 C2.47253678 3.03447696 3.47426795 5.18566987 5 9 C-3.58 9 -12.16 9 -21 9 C-21 8.67 -21 8.34 -21 8 C-13.74 7.67 -6.48 7.34 1 7 C0.67 4.69 0.34 2.38 0 0 Z " fill="#33814C" transform="translate(576,573)"/>
<path d="M0 0 C0 0.33 0 0.66 0 1 C-1.14339844 1.20496094 -2.28679688 1.40992188 -3.46484375 1.62109375 C-4.95576676 1.8930231 -6.44665016 2.16516974 -7.9375 2.4375 C-9.06961914 2.63956055 -9.06961914 2.63956055 -10.22460938 2.84570312 C-13.91953174 3.24272034 -13.91953174 3.24272034 -17 5 C-18.51928038 5.07179964 -20.04167482 5.08392007 -21.5625 5.0625 C-22.38878906 5.05347656 -23.21507812 5.04445313 -24.06640625 5.03515625 C-24.70449219 5.02355469 -25.34257813 5.01195312 -26 5 C-18.71705049 0.14470032 -8.57114473 -0.44333507 0 0 Z " fill="#A2C05A" transform="translate(645,436)"/>
<path d="M0 0 C0.33 0 0.66 0 1 0 C0.67 3.96 0.34 7.92 0 12 C0.94875 11.525625 1.8975 11.05125 2.875 10.5625 C4.58333333 9.70833333 6.29166667 8.85416667 8 8 C8.36923077 12.55384615 8.36923077 12.55384615 6.5 14.8125 C6.005 15.204375 5.51 15.59625 5 16 C4.67 15.01 4.34 14.02 4 13 C3.34 13.66 2.68 14.32 2 15 C1.01 15 0.02 15 -1 15 C-1.02715383 13.25008666 -1.04646551 11.50005055 -1.0625 9.75 C-1.07410156 8.77546875 -1.08570313 7.8009375 -1.09765625 6.796875 C-1.01195577 4.34241322 -0.70706066 2.33831086 0 0 Z " fill="#ECF6D0" transform="translate(587,470)"/>
<path d="M0 0 C-3.38148868 1.78582287 -6.8638088 3.14488935 -10.4375 4.5 C-14.30469286 5.96980215 -18.16371451 7.45114455 -22 9 C-22 8.01 -22 7.02 -22 6 C-20.33234128 5.28528912 -18.66398521 4.57216244 -16.9921875 3.8671875 C-15.15818847 3.06885851 -13.35803306 2.1939435 -11.5625 1.3125 C-7.3381904 -0.24382459 -4.45944386 -0.23470757 0 0 Z " fill="#E0FCEB" transform="translate(206,461)"/>
<path d="M0 0 C0.99 0.33 1.98 0.66 3 1 C-0.6124814 5.01386822 -3.61506176 6.7918154 -9.04296875 7.265625 C-10.08066406 7.26046875 -11.11835938 7.2553125 -12.1875 7.25 C-13.23292969 7.25515625 -14.27835937 7.2603125 -15.35546875 7.265625 C-18 7 -18 7 -20 5 C-19.31035156 5.03480469 -18.62070312 5.06960938 -17.91015625 5.10546875 C-11.31480814 5.2954582 -6.09665427 4.52898251 0 2 C0 1.34 0 0.68 0 0 Z " fill="#D6F7E1" transform="translate(336,555)"/>
<path d="M0 0 C7.43424753 3.39425555 12.60497746 9.27012174 17 16 C16.34 16.33 15.68 16.66 15 17 C14.401875 16.236875 13.80375 15.47375 13.1875 14.6875 C11.15995888 12.08664741 11.15995888 12.08664741 9.25 10.3125 C8 9 8 9 8 7 C7.4225 6.731875 6.845 6.46375 6.25 6.1875 C3.94449957 4.97070811 1.97943808 3.69666121 0 2 C0 1.34 0 0.68 0 0 Z " fill="#2A497C" transform="translate(227,529)"/>
<path d="M0 0 C0.33 0 0.66 0 1 0 C0.4262611 9.08923201 -0.61050442 18.00200434 -2 27 C-2.33 27 -2.66 27 -3 27 C-2.88936784 23.6243699 -2.75891985 20.24978011 -2.625 16.875 C-2.5940625 15.92367187 -2.563125 14.97234375 -2.53125 13.9921875 C-2.32252954 8.98289652 -1.94494635 4.69633387 0 0 Z " fill="#D0F4DD" transform="translate(509,497)"/>
<path d="M0 0 C1.25495545 3.76486635 0.5818409 4.44085797 -1 8 C-1.54930697 9.43459781 -2.09063849 10.87226849 -2.625 12.3125 C-3.07875 13.529375 -3.5325 14.74625 -4 16 C-4.66 16 -5.32 16 -6 16 C-6 17.98 -6 19.96 -6 22 C-6.66 22 -7.32 22 -8 22 C-7.48053489 16.37368074 -5.93544322 12.10290424 -3.4375 7.0625 C-3.10814453 6.37865234 -2.77878906 5.69480469 -2.43945312 4.99023438 C-1.63482961 3.32268129 -0.8186103 1.66073161 0 0 Z " fill="#388C51" transform="translate(165,489)"/>
<path d="M0 0 C4.04301175 1.48518799 7.61146256 3.42877998 11.3125 5.625 C12.38113281 6.25664063 13.44976562 6.88828125 14.55078125 7.5390625 C15.76314453 8.26222656 15.76314453 8.26222656 17 9 C16.34 9.66 15.68 10.32 15 11 C12.97954558 10.39816251 10.97888961 9.72693904 9 9 C8.67 8.34 8.34 7.68 8 7 C6.24063735 5.93489565 4.4283566 5.02623787 2.59375 4.09765625 C1 3 1 3 0 0 Z " fill="#264A7D" transform="translate(272,576)"/>
<path d="M0 0 C2.96430761 3.55716913 4.7721925 7.45050932 6.6875 11.625 C7.00783203 12.305625 7.32816406 12.98625 7.65820312 13.6875 C10 18.74058835 10 18.74058835 10 21 C9.34 21 8.68 21 8 21 C8 20.01 8 19.02 8 18 C7.34 18 6.68 18 6 18 C5.73445312 17.32453125 5.46890625 16.6490625 5.1953125 15.953125 C4.84210937 15.06109375 4.48890625 14.1690625 4.125 13.25 C3.77695312 12.36828125 3.42890625 11.4865625 3.0703125 10.578125 C2.07142668 8.04417218 2.07142668 8.04417218 0.8671875 5.921875 C0 4 0 4 0 0 Z " fill="#D6F8E1" transform="translate(541,553)"/>
<path d="M0 0 C0 3 0 3 -1.828125 4.83203125 C-2.62734375 5.48558594 -3.4265625 6.13914062 -4.25 6.8125 C-7.07231337 9.20947258 -9.48164088 11.34514678 -11.4375 14.5 C-12.2109375 15.7375 -12.2109375 15.7375 -13 17 C-13.66 17 -14.32 17 -15 17 C-13.57875727 12.36404157 -10.92216252 9.53067776 -7.5 6.25 C-7.00113281 5.75628906 -6.50226563 5.26257813 -5.98828125 4.75390625 C-2.3110119 1.15550595 -2.3110119 1.15550595 0 0 Z " fill="#31874E" transform="translate(440,503)"/>
<path d="M0 0 C2 2 2 2 2 5 C-3.15946865 6.7041678 -7.4425333 7.22225605 -12.9375 7.125 C-13.62134766 7.11597656 -14.30519531 7.10695313 -15.00976562 7.09765625 C-16.67333287 7.07438958 -18.33671631 7.03853167 -20 7 C-20 6.67 -20 6.34 -20 6 C-19.22914063 5.93941406 -18.45828125 5.87882813 -17.6640625 5.81640625 C-16.66117188 5.73261719 -15.65828125 5.64882813 -14.625 5.5625 C-13.62726563 5.48128906 -12.62953125 5.40007813 -11.6015625 5.31640625 C-9.02072387 5.15034374 -9.02072387 5.15034374 -7 4 C-4.6670134 3.95977609 -2.33293334 3.95679753 0 4 C0 2.68 0 1.36 0 0 Z " fill="#D9F9E9" transform="translate(227,553)"/>
<path d="M0 0 C4.13142597 4.13142597 3.18365097 9.53438047 3.1875 15 C3.19974609 15.91523437 3.21199219 16.83046875 3.22460938 17.7734375 C3.22654297 18.65257812 3.22847656 19.53171875 3.23046875 20.4375 C3.23457764 21.24058594 3.23868652 22.04367187 3.24291992 22.87109375 C3 25 3 25 1 28 C1.00523682 27.43490723 1.01047363 26.86981445 1.01586914 26.28759766 C1.03662422 23.7334097 1.0496554 21.17923947 1.0625 18.625 C1.07087891 17.73554687 1.07925781 16.84609375 1.08789062 15.9296875 C1.09111328 15.07890625 1.09433594 14.228125 1.09765625 13.3515625 C1.10289307 12.56604004 1.10812988 11.78051758 1.11352539 10.97119141 C1.12573953 8.92227332 1.12573953 8.92227332 0 7 C-0.04022391 4.6670134 -0.04320247 2.33293334 0 0 Z " fill="#D3F5DE" transform="translate(249,503)"/>
<path d="M0 0 C0.33 0 0.66 0 1 0 C1.05429278 2.70860665 1.09381211 5.41610901 1.125 8.125 C1.15013672 9.26582031 1.15013672 9.26582031 1.17578125 10.4296875 C1.21546246 15.03270731 0.75907577 18.66464004 -1 23 C-1.33 23 -1.66 23 -2 23 C-2.31732638 15.22550376 -1.11855299 7.67007765 0 0 Z " fill="#479561" transform="translate(514,467)"/>
<path d="M0 0 C0.33 0 0.66 0 1 0 C1.14285714 8.57142857 1.14285714 8.57142857 0 12 C0.99 12 1.98 12 3 12 C3 11.34 3 10.68 3 10 C3.99 10.33 4.98 10.66 6 11 C3.69 13.31 1.38 15.62 -1 18 C-2.08053255 13.67786978 -1.74913297 11.1121389 -1.0625 6.75 C-0.86785156 5.48671875 -0.67320312 4.2234375 -0.47265625 2.921875 C-0.31667969 1.95765625 -0.16070313 0.9934375 0 0 Z " fill="#B7EBC9" transform="translate(531,513)"/>
<path d="M0 0 C0.8971875 0.309375 0.8971875 0.309375 1.8125 0.625 C1.29300781 1.06070312 0.77351563 1.49640625 0.23828125 1.9453125 C-4.01972666 5.58154106 -7.74222652 9.21074336 -11.1875 13.625 C-12.1875 10.625 -12.1875 10.625 -11.5625 8.5625 C-9.78517724 6.05809065 -8.0676187 5.53451117 -5.1875 4.625 C-5.1875 3.635 -5.1875 2.645 -5.1875 1.625 C-2.1875 -0.375 -2.1875 -0.375 0 0 Z " fill="#D3F5DF" transform="translate(438.1875,503.375)"/>
<path d="M0 0 C5.26823337 1.48169064 9.49296424 4.87859301 13 9 C13.5 12.4375 13.5 12.4375 13 15 C11.35 15.33 9.7 15.66 8 16 C9.32 14.02 10.64 12.04 12 10 C11.42765625 9.74347656 10.8553125 9.48695313 10.265625 9.22265625 C7.77351217 7.87777467 5.86644919 6.31486882 3.75 4.4375 C3.04359375 3.81746094 2.3371875 3.19742188 1.609375 2.55859375 C1.07828125 2.04425781 0.5471875 1.52992188 0 1 C0 0.67 0 0.34 0 0 Z " fill="#CFF3DE" transform="translate(482,557)"/>
<path d="M0 0 C0.33 0 0.66 0 1 0 C1.05434116 2.5419589 1.0938339 5.08273682 1.125 7.625 C1.15013672 8.69427734 1.15013672 8.69427734 1.17578125 9.78515625 C1.21684602 14.2612164 0.69086567 17.77949278 -1 22 C-1.33 22 -1.66 22 -2 22 C-2.29883729 14.52906777 -1.15925507 7.36955011 0 0 Z " fill="#3D9056" transform="translate(288,530)"/>
<path d="M0 0 C0.33 0 0.66 0 1 0 C0.88581333 2.58422459 0.75907638 5.16679513 0.625 7.75 C0.5940625 8.47960937 0.563125 9.20921875 0.53125 9.9609375 C0.3251506 13.73942656 0.08487157 16.77946668 -2 20 C-2.05425226 17.60385874 -2.09379027 15.20896147 -2.125 12.8125 C-2.14175781 12.13896484 -2.15851563 11.46542969 -2.17578125 10.77148438 C-2.21538674 6.71192193 -1.80020002 3.65001185 0 0 Z " fill="#D4F6E0" transform="translate(379,560)"/>
<path d="M0 0 C0.99 0.33 1.98 0.66 3 1 C-0.63 4.63 -4.26 8.26 -8 12 C-8.33 10.68 -8.66 9.36 -9 8 C-7.75 6.25 -7.75 6.25 -6 5 C-5.01 5 -4.02 5 -3 5 C-3 4.01 -3 3.02 -3 2 C-2.01 1.34 -1.02 0.68 0 0 Z " fill="#D1F6DF" transform="translate(550,507)"/>
<path d="M0 0 C-0.83144531 0.48210937 -1.66289063 0.96421875 -2.51953125 1.4609375 C-3.60621094 2.09257812 -4.69289063 2.72421875 -5.8125 3.375 C-6.89144531 4.00148438 -7.97039063 4.62796875 -9.08203125 5.2734375 C-11.08831093 6.46055346 -13.06034059 7.70689373 -15 9 C-15 8.34 -15 7.68 -15 7 C-15.66 6.67 -16.32 6.34 -17 6 C-14.73495035 4.80015203 -12.46410112 3.61505231 -10.1875 2.4375 C-9.54490234 2.09525391 -8.90230469 1.75300781 -8.24023438 1.40039062 C-3.33984375 -1.11328125 -3.33984375 -1.11328125 0 0 Z " fill="#DDF69B" transform="translate(631,451)"/>
<path d="M0 0 C0.33 0 0.66 0 1 0 C1.02578125 0.67804687 1.0515625 1.35609375 1.078125 2.0546875 C1.5520842 9.83192714 3.53164207 16.06328414 7 23 C5.109375 22.69921875 5.109375 22.69921875 3 22 C-0.8589917 14.97112225 -0.29749129 7.84495556 0 0 Z " fill="#D4F8DE" transform="translate(285,550)"/>
<path d="M0 0 C0.33 0 0.66 0 1 0 C1.2967033 18.3956044 1.2967033 18.3956044 -3 24 C-4.54434011 20.91131978 -3.33855279 18.0516541 -2.625 14.8125 C-1.56676221 9.88875474 -0.66042936 4.99206895 0 0 Z " fill="#419159" transform="translate(345,529)"/>
<path d="M0 0 C0.33 0 0.66 0 1 0 C0.03644647 13.6332574 0.03644647 13.6332574 -1 20 C-1.33 20 -1.66 20 -2 20 C-2.05407567 17.41638482 -2.093707 14.83390745 -2.125 12.25 C-2.14175781 11.52039063 -2.15851563 10.79078125 -2.17578125 10.0390625 C-2.21072239 6.1955376 -2.17499684 3.25393228 0 0 Z " fill="#D9F9E5" transform="translate(505,525)"/>
<path d="M0 0 C0.99 0.33 1.98 0.66 3 1 C-0.63 4.63 -4.26 8.26 -8 12 C-8.66 11.34 -9.32 10.68 -10 10 C-6.7 6.7 -3.4 3.4 0 0 Z " fill="#348A4F" transform="translate(573,512)"/>
<path d="M0 0 C0.99 0.33 1.98 0.66 3 1 C-0.63 4.63 -4.26 8.26 -8 12 C-8.66 11.34 -9.32 10.68 -10 10 C-6.7 6.7 -3.4 3.4 0 0 Z " fill="#30854C" transform="translate(587,498)"/>
<path d="M0 0 C1.42308385 3.80101107 0.56065145 6.34806588 -0.6875 10.125 C-1.02136719 11.17945313 -1.35523438 12.23390625 -1.69921875 13.3203125 C-3 16 -3 16 -5.14453125 17.3671875 C-5.75683594 17.57601563 -6.36914062 17.78484375 -7 18 C-5.84646734 13.47460262 -4.43495237 9.9567976 -2 6 C-1.28856912 4.01548229 -0.61008664 2.01797888 0 0 Z " fill="#F8FDE3" transform="translate(652,441)"/>
<path d="M0 0 C1.98 0 3.96 0 6 0 C3.18733412 2.14481827 0.31944934 4.16531633 -2.625 6.125 C-3.40101563 6.64320313 -4.17703125 7.16140625 -4.9765625 7.6953125 C-7 9 -7 9 -9 10 C-9 8.68 -9 7.36 -9 6 C-8.01 6 -7.02 6 -6 6 C-5.67 5.01 -5.34 4.02 -5 3 C-3.67696283 2.6278958 -2.34262065 2.29369827 -1 2 C-0.67 1.34 -0.34 0.68 0 0 Z " fill="#F0FBD2" transform="translate(610,441)"/>
<path d="M0 0 C13.86 0.495 13.86 0.495 28 1 C28 1.33 28 1.66 28 2 C24.83447255 2.22882241 21.66773036 2.42924138 18.5 2.625 C17.613125 2.68945312 16.72625 2.75390625 15.8125 2.8203125 C10.08030906 3.1575002 5.49640463 2.68231076 0 1 C0 0.67 0 0.34 0 0 Z " fill="#163C71" transform="translate(316,594)"/>
<path d="M0 0 C1.24284687 2.93763806 1.01320986 3.96662773 -0.1875 7 C-1.88635609 9.81189974 -3.56575933 11.81757733 -6 14 C-6.99 13.67 -7.98 13.34 -9 13 C-8.60167969 12.56429687 -8.20335937 12.12859375 -7.79296875 11.6796875 C-4.51063169 7.99005314 -2.00600254 4.56922802 0 0 Z " fill="#DEFAE6" transform="translate(361,562)"/>
<path d="M0 0 C2.9905749 1.49528745 3.31662288 3.70039033 4.5625 6.75 C4.99691406 7.79671875 5.43132812 8.8434375 5.87890625 9.921875 C6.86604659 12.63221154 7.53208516 15.16096616 8 18 C3.35058518 12.85243359 0 6.99826151 0 0 Z " fill="#308849" transform="translate(158,543)"/>
<path d="M0 0 C3 1 3 1 4 3 C4.42484112 8.02893321 4.35785972 12.4316468 2 17 C1.34 17 0.68 17 0 17 C0.16242188 16.44441406 0.32484375 15.88882812 0.4921875 15.31640625 C1.04575665 12.79127928 1.13279234 10.52066161 1.125 7.9375 C1.12757813 7.08027344 1.13015625 6.22304688 1.1328125 5.33984375 C1.09365135 2.84435799 1.09365135 2.84435799 0 0 Z " fill="#D4F4E0" transform="translate(417,464)"/>
<path d="M0 0 C0.66 0.33 1.32 0.66 2 1 C0.71937515 2.7074998 -0.61767557 4.37373596 -2 6 C-2.66 6 -3.32 6 -4 6 C-4.28875 7.134375 -4.5775 8.26875 -4.875 9.4375 C-5.24625 10.613125 -5.6175 11.78875 -6 13 C-6.99 13.495 -6.99 13.495 -8 14 C-7.84036991 7.61479646 -4.21875117 4.33991635 0 0 Z " fill="#DEFAE7" transform="translate(452,521)"/>
<path d="M0 0 C0 0.66 0 1.32 0 2 C-3 4 -3 4 -6 4 C-6.33 4.99 -6.66 5.98 -7 7 C-9.31 7.33 -11.62 7.66 -14 8 C-10.67417683 4.11987297 -5.34770586 0 0 0 Z " fill="#9CBD53" transform="translate(618,441)"/>
<path d="M0 0 C0.66 0.33 1.32 0.66 2 1 C1.938125 1.70125 1.87625 2.4025 1.8125 3.125 C1.81906142 6.14406649 1.81906142 6.14406649 3.5625 9.0625 C5.13486303 12.27558967 5.04116106 12.79377554 4 16 C2.93907266 14.09392715 1.90179899 12.17467254 0.875 10.25 C0.29492188 9.18265625 -0.28515625 8.1153125 -0.8828125 7.015625 C-2 4 -2 4 -1.1796875 1.609375 C-0.79039062 1.07828125 -0.40109375 0.5471875 0 0 Z " fill="#CEF4DA" transform="translate(558,529)"/>
<path d="M0 0 C0.33 0 0.66 0 1 0 C0.125 6.75 0.125 6.75 -1 9 C2.96 9 6.92 9 11 9 C11 9.33 11 9.66 11 10 C6.71 10 2.42 10 -2 10 C-2.1953125 3.9453125 -2.1953125 3.9453125 -2 2 C-1.34 1.34 -0.68 0.68 0 0 Z " fill="#F7FCE7" transform="translate(591,482)"/>
<path d="M0 0 C-1.49097658 3.7952131 -3.75700849 5.61042731 -7 8 C-7.33 6.35 -7.66 4.7 -8 3 C-4.93882432 0.37613513 -4.26826873 0 0 0 Z " fill="#EAF7BF" transform="translate(616,458)"/>
<path d="M0 0 C0.33 0 0.66 0 1 0 C0.50873071 6.36559573 0.00344253 12.69264693 -1 19 C-1.33 19 -1.66 19 -2 19 C-2.05428973 16.77110504 -2.09292338 14.54182529 -2.125 12.3125 C-2.15980469 10.45044922 -2.15980469 10.45044922 -2.1953125 8.55078125 C-2.01032021 5.18762143 -1.45767895 3.0014413 0 0 Z " fill="#D4F6E1" transform="translate(387,506)"/>
<path d="M0 0 C-4.9748792 3.31658613 -11.03568353 4.38479461 -17 4 C-11.35084394 0.23389596 -6.59922601 -0.22755952 0 0 Z " fill="#398E57" transform="translate(464,496)"/>
<path d="M0 0 C0.99 0.33 1.98 0.66 3 1 C2.52949219 1.45890625 2.05898437 1.9178125 1.57421875 2.390625 C-3.03368398 6.91549295 -3.03368398 6.91549295 -7 12 C-6.4685789 7.48292068 -4.70984317 4.61312423 -2 1 C-1.34 0.67 -0.68 0.34 0 0 Z " fill="#398C50" transform="translate(193,491)"/>
<path d="M0 0 C4.27788797 -0.36667611 6.58511082 0.39390036 10 3 C11.8125 5.6875 11.8125 5.6875 13 8 C9.30603212 8 8.18701481 6.67460527 5.49609375 4.3125 C3.73782139 2.76999475 1.88775559 1.3795137 0 0 Z " fill="#388B50" transform="translate(233,486)"/>
<path d="M0 0 C0 0.66 0 1.32 0 2 C-3.42094242 4.28062828 -4.68187222 4.21925007 -8.6875 4.125 C-10.17830078 4.09792969 -10.17830078 4.09792969 -11.69921875 4.0703125 C-12.45847656 4.04710937 -13.21773438 4.02390625 -14 4 C-14 3.34 -14 2.68 -14 2 C-12.95199219 1.90912109 -12.95199219 1.90912109 -11.8828125 1.81640625 C-10.97273438 1.73261719 -10.06265625 1.64882813 -9.125 1.5625 C-8.22007812 1.48128906 -7.31515625 1.40007812 -6.3828125 1.31640625 C-3.9906624 0.99876009 -2.3900132 0 0 0 Z " fill="#D5F5E0" transform="translate(413,485)"/>
<path d="M0 0 C0.33 0 0.66 0 1 0 C1.15855469 0.59167969 1.31710937 1.18335938 1.48046875 1.79296875 C3.08163388 7.21569926 4.65489248 10.35950451 9 14 C5.62537285 13.45276317 3.91765 12.9451 1 11 C-0.43554259 7.47639547 -0.07207703 3.74800535 0 0 Z " fill="#D4F5E0" transform="translate(390,473)"/>
<path d="M0 0 C0.90105469 0.02707031 1.80210937 0.05414062 2.73046875 0.08203125 C3.76107422 0.13423828 3.76107422 0.13423828 4.8125 0.1875 C2.54687327 2.45312673 0.97089295 3.13212749 -2.23046875 3.28515625 C-2.93816406 3.27355469 -3.64585937 3.26195312 -4.375 3.25 C-6.2621875 3.2190625 -6.2621875 3.2190625 -8.1875 3.1875 C-5.67753317 0.01043235 -3.96125134 -0.15433447 0 0 Z " fill="#234579" transform="translate(339.1875,599.8125)"/>
<path d="M0 0 C0.33 1.32 0.66 2.64 1 4 C0.443125 4.103125 -0.11375 4.20625 -0.6875 4.3125 C-3.15132842 4.93498888 -3.15132842 4.93498888 -5.625 6.625 C-6.40875 7.07875 -7.1925 7.5325 -8 8 C-8.66 7.67 -9.32 7.34 -10 7 C-8.71372289 5.82739389 -7.42080217 4.6620717 -6.125 3.5 C-5.04605469 2.52546875 -5.04605469 2.52546875 -3.9453125 1.53125 C-2 0 -2 0 0 0 Z " fill="#D6F8E4" transform="translate(540,549)"/>
<path d="M0 0 C1.32 0.66 2.64 1.32 4 2 C2.40907948 6.13639336 -0.60474918 9.23213248 -4 12 C-4.66 12 -5.32 12 -6 12 C-4.44499019 8.18315774 -1.96404505 5.80804268 1 3 C0.67 2.01 0.34 1.02 0 0 Z " fill="#338650" transform="translate(490,565)"/>
<path d="M0 0 C3 2 3 2 3.6875 3.6875 C4.10859258 6.80358511 4.06037884 9.86030043 4 13 C0.90576832 9.90576832 0.06293995 6.4476188 -0.125 2.125 C-0.08375 1.42375 -0.0425 0.7225 0 0 Z " fill="#378E50" transform="translate(286,556)"/>
<path d="M0 0 C0.33 1.32 0.66 2.64 1 4 C0.01 4.33 -0.98 4.66 -2 5 C-2 5.66 -2 6.32 -2 7 C-4.375 8.6875 -4.375 8.6875 -7 10 C-7.66 9.67 -8.32 9.34 -9 9 C-6.03 6.03 -3.06 3.06 0 0 Z " fill="#DAFAE4" transform="translate(579,509)"/>
<path d="M0 0 C0.33 0.99 0.66 1.98 1 3 C-0.21484375 4.82421875 -0.21484375 4.82421875 -1.9375 6.6875 C-2.50339844 7.31011719 -3.06929687 7.93273437 -3.65234375 8.57421875 C-4.09707031 9.04472656 -4.54179688 9.51523437 -5 10 C-6.32 9.67 -7.64 9.34 -9 9 C-8.51789062 8.60167969 -8.03578125 8.20335937 -7.5390625 7.79296875 C-6.90742187 7.26316406 -6.27578125 6.73335938 -5.625 6.1875 C-4.99851562 5.66542969 -4.37203125 5.14335937 -3.7265625 4.60546875 C-1.7778952 2.91774261 -1.7778952 2.91774261 0 0 Z " fill="#F0F9D1" transform="translate(636,470)"/>
<path d="M0 0 C-2.96346786 2.47186455 -5.54041689 3.66248361 -9.25 4.6875 C-10.14203125 4.93886719 -11.0340625 5.19023437 -11.953125 5.44921875 C-12.62859375 5.63097656 -13.3040625 5.81273437 -14 6 C-14 5.34 -14 4.68 -14 4 C-4.58997722 -0.59225513 -4.58997722 -0.59225513 0 0 Z " fill="#98BE43" transform="translate(628,450)"/>
<path d="M0 0 C0 3.62875867 -1.22793994 5.01739353 -3.5546875 7.703125 C-5.55721506 9.49998757 -7.35337395 9.84876423 -10 10 C-6.66666667 6.66666667 -3.33333333 3.33333333 0 0 Z " fill="#D5F5E1" transform="translate(500,510)"/>
<path d="M0 0 C0.99 0.33 1.98 0.66 3 1 C2.195625 1.66 1.39125 2.32 0.5625 3 C-2.75148924 6.87979228 -2.74577025 9.00014825 -3 14 C-3.33 14 -3.66 14 -4 14 C-4.63019694 4.82713348 -4.63019694 4.82713348 -2 1.375 C-1.34 0.92125 -0.68 0.4675 0 0 Z " fill="#338A4E" transform="translate(527,556)"/>
<path d="M0 0 C3.21043882 1.38188453 5.04936365 2.92421903 7.25 5.625 C8.03117188 6.57246094 8.03117188 6.57246094 8.828125 7.5390625 C9.40820312 8.26222656 9.40820312 8.26222656 10 9 C7 9 7 9 5.17578125 7.28515625 C4.56089844 6.55167969 3.94601563 5.81820312 3.3125 5.0625 C2.68988281 4.33160156 2.06726563 3.60070312 1.42578125 2.84765625 C0 1 0 1 0 0 Z " fill="#338A4A" transform="translate(166,561)"/>
<path d="M0 0 C1.07765625 0.01804687 2.1553125 0.03609375 3.265625 0.0546875 C4.49539062 0.08949219 4.49539062 0.08949219 5.75 0.125 C5.75 0.455 5.75 0.785 5.75 1.125 C3.69921875 1.35286458 1.6484375 1.58072917 -0.40234375 1.80859375 C-2.26140229 1.94386614 -2.26140229 1.94386614 -3.25 3.125 C-5.58944736 2.83769945 -7.9239143 2.50563221 -10.25 2.125 C-6.7733662 -0.01836161 -4.03770805 -0.08777626 0 0 Z " fill="#324C70" transform="translate(205.25,520.875)"/>
<path d="M0 0 C4.571279 0.54855348 8.67435795 1.41744803 13 3 C11.296875 4.1171875 11.296875 4.1171875 9 5 C6.640625 4.3203125 6.640625 4.3203125 4.25 3.125 C3.45078125 2.73570312 2.6515625 2.34640625 1.828125 1.9453125 C0.92320312 1.47738281 0.92320312 1.47738281 0 1 C0 0.67 0 0.34 0 0 Z " fill="#2D4D7F" transform="translate(266,595)"/>
<path d="M0 0 C1.32 1.32 2.64 2.64 4 4 C3.443125 3.7525 2.88625 3.505 2.3125 3.25 C-0.22778915 2.7004776 -0.22778915 2.7004776 -2.5 5 C-3.325 5.66 -4.15 6.32 -5 7 C-6.32 6.67 -7.64 6.34 -9 6 C-6.03 4.02 -3.06 2.04 0 0 Z " fill="#2B8248" transform="translate(479,555)"/>
<path d="M0 0 C0.66 0 1.32 0 2 0 C1.66410006 3.13506611 0.97334828 4.025249 -1.375 6.25 C-4 8 -4 8 -7 8 C-7 7.34 -7 6.68 -7 6 C-2.61538462 3 -2.61538462 3 0 3 C0 2.01 0 1.02 0 0 Z " fill="#2A7F46" transform="translate(415,478)"/>
<path d="M0 0 C1 3 1 3 -0.125 6.0625 C-2 9 -2 9 -7 11 C-4.69 7.37 -2.38 3.74 0 0 Z " fill="#F3FAD4" transform="translate(644,459)"/>
<path d="M0 0 C4.29718241 1.90985885 7.6891507 4.6891507 11 8 C10.01 8.495 10.01 8.495 9 9 C7.68103535 8.07161713 6.37001311 7.13194268 5.0625 6.1875 C4.33160156 5.66542969 3.60070312 5.14335938 2.84765625 4.60546875 C1 3 1 3 0 0 Z " fill="#388A51" transform="translate(428,570)"/>
<path d="M0 0 C3.27723056 1.05339554 4.60460094 2.63763259 6.3125 5.5 C7.1478125 7.2325 7.1478125 7.2325 8 9 C7.67 9.66 7.34 10.32 7 11 C5.82750647 9.54634731 4.66216184 8.08692581 3.5 6.625 C2.52546875 5.40683594 2.52546875 5.40683594 1.53125 4.1640625 C0 2 0 2 0 0 Z " fill="#0B4E6C" transform="translate(235,566)"/>
<path d="M0 0 C0.33 0 0.66 0 1 0 C1.12375 1.051875 1.2475 2.10375 1.375 3.1875 C1.83631038 6.89272158 1.83631038 6.89272158 3.125 9.75 C4 12 4 12 3 15 C-0.16727335 9.8531808 -0.35050464 5.841744 0 0 Z " fill="#BBE6C8" transform="translate(310,543)"/>
<path d="M0 0 C-2.34591852 2.7710688 -4.14776201 3.52059284 -7.6875 4.1875 C-8.49574219 4.34605469 -9.30398438 4.50460937 -10.13671875 4.66796875 C-11.05904297 4.83232422 -11.05904297 4.83232422 -12 5 C-10.68 4.34 -9.36 3.68 -8 3 C-8 2.34 -8 1.68 -8 1 C-2.25 -1.125 -2.25 -1.125 0 0 Z " fill="#F1F9D7" transform="translate(618,486)"/>
<path d="M0 0 C0 0.66 0 1.32 0 2 C-2.31 2.66 -4.62 3.32 -7 4 C-6.6875 2.0625 -6.6875 2.0625 -6 0 C-3 -1 -3 -1 0 0 Z " fill="#25487B" transform="translate(360,594)"/>
<path d="M0 0 C1.60568666 0.28317926 3.20952047 0.57687791 4.8125 0.875 C6.15248047 1.11863281 6.15248047 1.11863281 7.51953125 1.3671875 C10 2 10 2 13 4 C10.6875 4.625 10.6875 4.625 8 5 C7.01 4.34 6.02 3.68 5 3 C3.34450469 2.61500109 1.6777567 2.27206865 0 2 C0 1.34 0 0.68 0 0 Z " fill="#1E4276" transform="translate(296,589)"/>
<path d="M0 0 C0.66 0.33 1.32 0.66 2 1 C-0.475 6.94 -0.475 6.94 -3 13 C-4.11529858 8.53880569 -3.67626679 7.14655469 -2 3 C-1.34 2.01 -0.68 1.02 0 0 Z " fill="#D4F8E3" transform="translate(424,517)"/>
<path d="M0 0 C4.03164412 2.01582206 5.60857906 3.28001188 8 7 C7.67 8.32 7.34 9.64 7 11 C4.69 7.37 2.38 3.74 0 0 Z " fill="#D5F7E0" transform="translate(264,477)"/>
<path d="M0 0 C2.475 0.495 2.475 0.495 5 1 C5 1.99 5 2.98 5 4 C7.475 4.99 7.475 4.99 10 6 C9.67 6.66 9.34 7.32 9 8 C7.68388323 7.04663979 6.37221039 6.08714226 5.0625 5.125 C4.33160156 4.59132813 3.60070312 4.05765625 2.84765625 3.5078125 C1 2 1 2 0 0 Z " fill="#2C4C7C" transform="translate(250,584)"/>
<path d="M0 0 C4.455 0.99 4.455 0.99 9 2 C9 2.66 9 3.32 9 4 C5.87709365 3.51421457 3.00419641 3.0013988 0 2 C0 1.34 0 0.68 0 0 Z " fill="#3A8E52" transform="translate(440,579)"/>
<path d="M0 0 C2.97 0.495 2.97 0.495 6 1 C6.33 1.99 6.66 2.98 7 4 C4.36 3.67 1.72 3.34 -1 3 C-0.67 2.01 -0.34 1.02 0 0 Z " fill="#409258" transform="translate(307,580)"/>
<path d="M0 0 C-1.39332574 3.36720387 -2.9789286 4.9859524 -6 7 C-6.33 6.01 -6.66 5.02 -7 4 C-6.34 4 -5.68 4 -5 4 C-4.67 3.01 -4.34 2.02 -4 1 C-2 0 -2 0 0 0 Z " fill="#3B8D52" transform="translate(357,569)"/>
<path d="M0 0 C0.99 0.33 1.98 0.66 3 1 C1.71283353 2.00578589 0.42011342 3.00446798 -0.875 4 C-1.95394531 4.8353125 -1.95394531 4.8353125 -3.0546875 5.6875 C-5 7 -5 7 -7 7 C-7 6.34 -7 5.68 -7 5 C-6.01 5 -5.02 5 -4 5 C-4 4.34 -4 3.68 -4 3 C-3.01 3 -2.02 3 -1 3 C-0.67 2.01 -0.34 1.02 0 0 Z " fill="#CCF1DA" transform="translate(477,554)"/>
<path d="M0 0 C1.8871875 0.0309375 1.8871875 0.0309375 3.8125 0.0625 C0.30711443 2.02551592 -3.32101728 3.02152388 -7.1875 4.0625 C-7.1875 3.0725 -7.1875 2.0825 -7.1875 1.0625 C-4.43671116 0.14557039 -2.82801087 -0.04636083 0 0 Z " fill="#D9F9E4" transform="translate(202.1875,460.9375)"/>
<path d="M0 0 C0.33 0.99 0.66 1.98 1 3 C0.01 3.33 -0.98 3.66 -2 4 C-2.33 5.65 -2.66 7.3 -3 9 C-3.66 9 -4.32 9 -5 9 C-3.90931332 5.22454612 -3.0916909 2.52956528 0 0 Z " fill="#D7F6E1" transform="translate(191,496)"/>
<path d="M0 0 C0 0.99 0 1.98 0 3 C-1.98 3.66 -3.96 4.32 -6 5 C-6.66 4.34 -7.32 3.68 -8 3 C-2.25 0 -2.25 0 0 0 Z " fill="#3B9157" transform="translate(195,465)"/>
<path d="M0 0 C3.36720387 1.39332574 4.9859524 2.9789286 7 6 C4 6 4 6 1.8125 4.125 C0 2 0 2 0 0 Z " fill="#348C51" transform="translate(483,559)"/>
<path d="M0 0 C0.33 0 0.66 0 1 0 C1.25 5.625 1.25 5.625 -1 9 C-1.99 8.67 -2.98 8.34 -4 8 C-2.68 5.36 -1.36 2.72 0 0 Z " fill="#D4F6DE" transform="translate(272,545)"/>
<path d="M0 0 C0.66 0 1.32 0 2 0 C1.34 2.97 0.68 5.94 0 9 C-0.33 9 -0.66 9 -1 9 C-1.09765625 2.84765625 -1.09765625 2.84765625 -1 1 C-0.67 0.67 -0.34 0.34 0 0 Z " fill="#358D53" transform="translate(513,481)"/>
<path d="M0 0 C0 3.93169105 -1.39419615 5.16427228 -4 8 C-4.66 8 -5.32 8 -6 8 C-4.55746343 4.63408134 -2.66735273 2.48952921 0 0 Z " fill="#3C8E56" transform="translate(176,476)"/>
<path d="M0 0 C1.14926266 0.95421808 2.29430541 1.91352045 3.4375 2.875 C4.07558594 3.40867187 4.71367187 3.94234375 5.37109375 4.4921875 C7 6 7 6 8 8 C4.82461668 7.65978036 3.97723135 6.97533396 1.75 4.5625 C0 2 0 2 0 0 Z " fill="#26487A" transform="translate(256,561)"/>
<path d="M0 0 C4.23830976 2.82553984 3.97715348 5.12180888 5 10 C2.66063182 7.87330165 1.19346152 5.93775144 0 3 C0 2.01 0 1.02 0 0 Z " fill="#0B5068" transform="translate(230,556)"/>
<path d="M0 0 C3.43595166 1.52708963 6.11912454 3.59927045 9 6 C5.21213403 5.4739075 2.82847776 4.61896089 0 2 C0 1.34 0 0.68 0 0 Z " fill="#378C52" transform="translate(190,551)"/>
<path d="M0 0 C0.33 0.99 0.66 1.98 1 3 C0.01 3.33 -0.98 3.66 -2 4 C-2.33 4.99 -2.66 5.98 -3 7 C-3.99 6.67 -4.98 6.34 -6 6 C-4.02 4.02 -2.04 2.04 0 0 Z " fill="#D6F8E1" transform="translate(586,502)"/>
<path d="M0 0 C-4.75 4 -4.75 4 -7 4 C-6.6875 2.0625 -6.6875 2.0625 -6 0 C-3 -1 -3 -1 0 0 Z " fill="#D6F6E2" transform="translate(184,471)"/>
</svg>
